<svg width="265" height="241" viewBox="0 0 265 241" fill="none" xmlns="http://www.w3.org/2000/svg">
<g clip-path="url(#clip0)">
<path fill-rule="evenodd" clip-rule="evenodd" d="M285.129 12.647C282.129 33.9179 277.814 54.9172 271.978 75.6017C268.762 87.0025 266.068 98.5284 261.892 109.679C254.961 128.165 245.999 145.559 234.883 161.806C226.228 174.453 217.094 186.777 208.163 199.234C207.465 200.209 206.93 201.39 205.568 201.684C204.318 200.787 204.719 199.545 204.827 198.346C207.9 163.898 216.318 130.696 228.461 98.4206C237.978 73.1223 249.53 48.7683 263.599 25.6346C268.547 17.4893 272.198 8.67136 276.116 0H269.077C269.081 0.931384 268.422 1.44882 267.991 2.02231C246.87 30.1148 222.711 55.2578 195.262 77.2445C192.573 79.3962 190.616 79.4867 187.702 77.7275C177.077 71.3026 165.474 68.5689 153.064 69.5477C147.564 69.9832 142.081 70.6084 136.586 71.1086C118.887 72.7256 101.237 74.9894 83.4693 75.7138C70.1934 76.2571 56.9175 76.7228 43.7322 78.3958C32.5813 79.8102 21.4003 81.2762 10.9175 85.7219C7.05977 87.3561 3.07701 88.8437 -0.00488281 92.0993C1.03822 93.7594 2.45201 94.0957 3.74081 94.6433C19.396 101.266 35.5081 106.549 51.896 110.99C65.1762 114.586 78.6503 116.902 92.4606 116.531C101.948 116.276 110.879 113.435 119.991 111.007C136.155 106.695 152.741 103.91 167.918 96.187C167.366 97.1744 166.711 97.9118 165.909 98.4163C157.081 103.961 148.12 109.257 138.793 113.948C133.512 116.604 127.974 117.622 122.232 117.842C117.336 118.027 112.426 117.885 107.521 117.85C95.2408 117.768 83.1029 118.445 70.9779 121.02C54.0081 124.624 39.1934 132.584 24.8658 141.795C18.271 146.033 12.9305 151.708 7.7365 157.499C6.92615 158.404 5.9046 159.465 6.4046 160.733C6.96926 162.16 8.43908 161.763 9.63736 161.638C14.9563 161.082 20.2451 161.418 25.5382 162.022C34.3831 163.027 43.1029 162.13 51.6589 159.827C58.4003 158.012 65.2839 157.124 72.1589 156.141C81.0684 154.869 89.9434 153.454 98.6115 150.958C101.56 150.108 104.474 149.181 107.18 147.672C122.224 139.307 134.745 128.057 145.206 114.457C146.219 113.142 147.176 111.908 148.655 111.081C158.241 105.691 167.504 99.7745 176.676 93.7033C176.965 94.0396 177.254 94.376 177.543 94.7123C172.823 99.7616 168.224 104.927 163.362 109.834C155.978 117.294 149.857 125.603 144.435 134.615C134.788 150.647 127.465 167.722 120.396 184.949C113.086 202.762 113.797 220.436 121.56 237.943C122.155 239.284 122.749 240.823 124.284 240.991C125.956 241.173 126.62 239.499 127.245 238.283C133.771 225.585 143.241 215.094 152.482 204.43C164.495 190.559 172.512 174.613 177.03 156.882C180.008 145.188 183.219 133.537 185.65 121.727C187.995 110.339 191.262 99.0458 191.512 87.3216C191.59 83.6133 193.043 81.315 195.805 79.1375C222.107 58.3883 245.349 34.6078 265.823 8.10218C266.59 7.10612 266.982 5.41583 268.943 5.58831C268.232 8.33503 266.62 10.4781 265.159 12.6686C256.405 25.7597 247.396 38.6869 238.866 51.9204C230.892 64.2914 222.874 76.7443 217.62 90.5642C210.853 108.364 206.482 126.918 201.599 145.3C200.547 149.254 200.124 153.333 199.741 157.413C198.564 169.9 200.624 182.31 200.53 194.776C200.504 197.949 201.836 201.162 202.724 204.305C203.314 206.401 204.616 206.923 206.232 205.15C207.055 204.249 207.754 203.227 208.469 202.231C216.689 190.761 224.922 179.296 233.12 167.809C249.181 145.3 261.551 120.907 269.021 94.2811C275.978 69.483 282.581 44.5685 286.206 18.977C287.103 12.6642 288.068 6.31703 287.991 0.00862393H285.905C285.939 4.22141 285.719 8.43851 285.129 12.647ZM139.961 118.303C129.314 129.355 118.426 140.083 104.323 146.861C95.6675 151.018 86.2236 151.867 77.0253 153.424C65.9563 155.3 54.8012 156.649 43.9003 159.448C40.6977 160.271 37.4305 160.388 34.1718 160.44C26.0641 160.569 18.0684 158.715 8.8615 159.75C13.7796 153.234 18.6374 148.357 24.396 144.576C38.4175 135.366 52.7193 126.733 69.5296 123.292C77.7581 121.61 85.9693 120.093 94.3701 119.976C104.146 119.834 113.926 119.903 123.84 120.36C109.452 127.966 94.2365 133.438 78.6675 137.797C63.0512 142.165 46.9348 144.52 31.2322 148.526C69.3615 144.429 105.43 133.24 140.594 115.449C140.142 117.561 140.189 118.066 139.961 118.303ZM169.663 92.8797C158.784 97.4806 148.31 103.026 136.366 104.936C128.737 106.156 121.215 108.416 113.836 110.787C102.521 114.422 91.0081 115.345 79.3141 114.095C55.5425 111.555 33.1546 103.97 11.1201 94.7166C17.2624 94.2423 23.271 95.2772 29.0727 97.0408C58.1201 105.867 87.7796 106.734 117.715 104.13C123.612 103.617 129.465 102.56 135.189 100.973C147.193 97.6531 159.189 94.294 171.336 90.9135C171.555 92.4916 170.331 92.5951 169.663 92.8797ZM55.9736 101.176C50.1072 100.331 44.327 99.0458 38.6158 97.4763C28.9563 94.8244 19.2494 92.4744 9.22357 91.7025C8.25374 91.6292 7.16322 91.75 6.12874 90.2753C13.7106 85.7693 21.8615 83.7901 30.0943 82.3499C47.4089 79.3186 64.9262 78.3829 82.4736 77.6887C102.456 76.8953 122.31 74.4547 142.193 72.4281C153.18 71.3113 164.163 70.229 174.922 74.0364C179.327 75.5974 183.698 77.1971 187.538 80.0473C186.93 82.4275 185.099 82.9148 183.478 83.6133C142.599 101.245 100.155 107.519 55.9736 101.176ZM121.952 227.193C121.935 228.202 121.81 229.207 121.672 231.044C118.37 225.951 118.301 220.751 117.693 215.848C116.383 205.288 118.318 195.121 122.34 185.281C129.685 167.287 137.487 149.53 147.741 132.942C150.974 127.712 154.241 122.537 158.409 118.006C165.418 110.391 172.879 103.211 179.922 95.51C180.228 98.4249 178.758 100.615 177.456 102.754C171.09 113.232 164.581 123.624 158.18 134.081C150.491 146.641 143.487 159.59 136.698 172.642C127.823 189.705 122.284 207.772 121.952 227.193ZM188.922 95.2254C185.064 117.592 179.754 139.63 173.655 161.474C169.478 176.433 162.232 189.851 152.185 201.731C142.961 212.636 133.094 223.058 126.349 235.847C126.193 236.145 125.702 236.261 124.952 236.718C123.905 233.562 123.909 230.444 123.952 227.301C124.228 206.992 130.465 188.36 139.913 170.646C150.107 151.531 160.737 132.671 172.715 114.595C177.81 106.907 182.124 98.8044 185.443 90.1847C186.094 88.4901 186.724 86.7567 189.021 84.9543C190.055 88.8437 189.469 92.0604 188.922 95.2254ZM204.112 189.269C203.987 190.205 203.862 191.136 203.737 192.072C203.672 192.572 203.599 193.073 203.538 193.573C203.521 193.702 203.538 193.9 203.508 194.073C203.478 194.258 203.392 194.414 203.155 194.405C202.849 194.396 202.724 193.926 202.646 193.689C202.314 192.689 202.353 191.749 202.305 190.705C202.254 189.636 202.202 188.571 202.15 187.501C202.047 185.367 201.948 183.233 201.857 181.098C201.68 176.842 201.551 172.578 201.56 168.318C201.568 164.075 201.711 159.827 202.077 155.597C202.443 151.359 203.03 147.133 203.918 142.967C204.758 139.018 205.862 135.124 207.262 131.334C210.443 122.723 212.288 113.646 214.741 104.785C219.676 86.9594 228.952 71.3328 238.581 55.9046C246.262 43.5983 254.659 31.7404 262.754 19.6884C263.637 18.3733 264.612 17.1228 266.435 16.3467C264.836 19.2874 263.344 22.2885 261.62 25.1517C236.491 66.8613 219.193 111.684 208.474 159.103C206.624 167.278 205.65 175.618 204.767 183.957C204.573 185.734 204.344 187.501 204.112 189.269Z" fill="#9E624C"/>
</g>
<defs>
<clipPath id="clip0">
<rect width="288" height="241" fill="white"/>
</clipPath>
</defs>
</svg>
