<svg width="20" height="19" viewBox="0 0 20 19" fill="none" xmlns="http://www.w3.org/2000/svg">
<path d="M18.6716 10.3713L18.672 10.3698H18.6595C18.4069 10.3698 17.1871 10.3256 16.032 9.64742C14.8809 8.97164 13.788 7.66305 13.788 5.11979C13.788 4.93629 13.632 4.78029 13.4485 4.78029C13.265 4.78029 13.109 4.93629 13.109 5.11979C13.109 7.66306 12.016 8.97167 10.8677 9.64744C9.71539 10.3256 8.50108 10.3698 8.25976 10.3698C8.18557 10.3698 8.10764 10.3936 8.05191 10.4458C8.02456 10.4612 8.00483 10.4818 7.9903 10.4992C7.9841 10.5066 7.97824 10.5143 7.9734 10.5206C7.9722 10.5221 7.97107 10.5236 7.97001 10.525C7.96407 10.5327 7.96023 10.5373 7.95717 10.5404L7.95143 10.5461L7.9478 10.5534C7.89623 10.6565 7.89623 10.7844 7.9478 10.8876C8.00156 10.9951 8.13121 11.0711 8.25976 11.0711H8.25976H8.25976H8.25977H8.25977H8.25977H8.25978H8.25978H8.25979H8.25979H8.2598H8.2598H8.25981H8.25981H8.25981H8.25982H8.25983H8.25983H8.25984H8.25984H8.25985H8.25986H8.25986H8.25986H8.25987H8.25987H8.25988H8.25988H8.25988H8.25989H8.25989H8.2599H8.2599H8.25991H8.25991H8.25992H8.25992H8.25993H8.25993H8.25994H8.25994H8.25995H8.25995H8.25996H8.25996H8.25997H8.25998H8.25998H8.25999H8.25999H8.26H8.26001H8.26001H8.26002H8.26003H8.26003H8.26004H8.26005H8.26006H8.26006H8.26007H8.26008H8.26009H8.2601H8.2601H8.26011H8.26012H8.26013H8.26014H8.26015H8.26015H8.26016H8.26017H8.26018H8.26019H8.2602H8.26021H8.26022H8.26023H8.26024H8.26025H8.26026H8.26027H8.26028H8.26029H8.2603H8.26032H8.26033H8.26034H8.26035H8.26036H8.26037H8.26039H8.2604H8.26041H8.26042H8.26043H8.26045H8.26046H8.26047H8.26049H8.2605H8.26051H8.26053H8.26054H8.26056H8.26057H8.26058H8.2606H8.26061H8.26063H8.26064H8.26066H8.26068H8.26069H8.26071H8.26072H8.26074H8.26076H8.26077H8.26079H8.26081H8.26082H8.26084H8.26086H8.26088H8.26089H8.26091H8.26093H8.26095H8.26097H8.26099H8.261H8.26102H8.26104H8.26106H8.26108H8.2611H8.26112H8.26114H8.26116H8.26118H8.26121H8.26123H8.26125H8.26127H8.26129H8.26131H8.26134H8.26136H8.26138H8.2614H8.26143H8.26145H8.26147H8.2615H8.26152H8.26155H8.26157H8.2616H8.26162H8.26165H8.26167H8.2617H8.26172H8.26175H8.26177H8.2618H8.26183H8.26185H8.26188H8.26191H8.26194H8.26196H8.26199H8.26202H8.26205H8.26208H8.26211H8.26214H8.26217H8.2622H8.26223H8.26226H8.26229H8.26232H8.26235H8.26238H8.26241H8.26244H8.26247H8.26251H8.26254H8.26257H8.2626H8.26264H8.26267H8.26271H8.26274H8.26277H8.26281H8.26284H8.26288H8.26291H8.26295H8.26298H8.26302H8.26306H8.26309H8.26313H8.26317H8.26321H8.26324H8.26328H8.26332H8.26336H8.2634H8.26344H8.26348H8.26352H8.26356H8.2636H8.26364H8.26368H8.26372H8.26376H8.2638H8.26384H8.26389H8.26393H8.26397H8.26401H8.26406H8.2641H8.26415H8.26419H8.26424H8.26428H8.26433H8.26437H8.26442H8.26446H8.26451H8.26456H8.2646H8.26465H8.2647H8.26475H8.26479H8.26484H8.26489H8.26494H8.26499H8.26504H8.26509H8.26514H8.26519H8.26524H8.26529H8.26535H8.2654H8.26545H8.2655H8.26556H8.26561H8.26566H8.26572H8.26577H8.26583H8.26588H8.26594H8.26599H8.26605H8.26611H8.26616H8.26622H8.26628H8.26633H8.26639H8.26645H8.26651H8.26657H8.26663H8.26669H8.26675H8.26681H8.26687H8.26693H8.26699H8.26705H8.26712H8.26718H8.26724H8.2673H8.26737H8.26743H8.2675H8.26756H8.26763H8.26769H8.26776H8.26782H8.26789H8.26796H8.26802H8.26809H8.26816H8.26823H8.2683H8.26837H8.26844H8.26851H8.26858H8.26865H8.26872H8.26879H8.26886H8.26893H8.269H8.26908H8.26915H8.26922H8.2693H8.26937H8.26945H8.26952H8.2696H8.26967H8.26975H8.26983H8.2699H8.26998H8.27006H8.27014H8.27022H8.27029H8.27037H8.27045H8.27053H8.27062H8.2707H8.27078H8.27086H8.27094H8.27102H8.27111H8.27119H8.27127H8.27136H8.27144H8.27153H8.27161H8.2717H8.27179H8.27187H8.27196H8.27205H8.27214H8.27222H8.27231H8.2724H8.27249H8.27258H8.27267H8.27276H8.27286H8.27295H8.27304H8.27313H8.27323H8.27332H8.27341H8.27351H8.2736H8.2737H8.27379H8.27389H8.27399H8.27408H8.27418H8.27428H8.27438H8.27448H8.27457H8.27467H8.27477H8.27487H8.27498H8.27508H8.27518H8.27528H8.27538H8.27549H8.27559H8.2757H8.2758H8.27591H8.27601H8.27612H8.27622H8.27633H8.27644H8.27655H8.27665H8.27676H8.27687H8.27698H8.27709H8.2772H8.27731H8.27743H8.27754H8.27765H8.27776H8.27788H8.27799H8.2781H8.27822H8.27834H8.27845H8.27857H8.27868H8.2788H8.27892H8.27904H8.27916H8.27928H8.2794H8.27952H8.27964H8.27976H8.27988H8.28H8.28012H8.28025H8.28037H8.2805H8.28062H8.28075H8.28087H8.281H8.28112H8.28125H8.28138H8.28151H8.28164H8.28176H8.28189H8.28202C8.53455 11.0711 9.7488 11.1154 10.8983 11.7935C12.0437 12.4692 13.1312 13.7778 13.1312 16.3212C13.1312 16.5047 13.2872 16.6607 13.4707 16.6607C13.6542 16.6607 13.8102 16.5047 13.8102 16.3212C13.8102 13.789 14.8977 12.4804 16.0433 11.8018C17.1929 11.1209 18.4072 11.0711 18.6595 11.0711C18.7929 11.0711 18.8951 10.9907 18.9667 10.8952L18.9673 10.8957L18.9714 10.8876C19.0226 10.7852 19.0241 10.655 18.947 10.5493C18.9185 10.4949 18.8716 10.4564 18.8231 10.4292C18.7733 10.4011 18.7186 10.3831 18.6716 10.3713ZM16.7646 10.7094C15.5628 11.1258 14.1022 12.0221 13.4485 13.9747C12.7948 12.0221 11.3342 11.1258 10.1323 10.7093C11.3342 10.2929 12.7948 9.39661 13.4485 7.44399C14.1022 9.39661 15.5628 10.2929 16.7646 10.7094Z" fill="white" stroke="white" stroke-width="0.1"/>
<path d="M3.82819 4.13398L3.82112 4.13499C3.64439 4.16024 3.51096 4.28957 3.51096 4.47399C3.51096 4.65749 3.66696 4.81349 3.85046 4.81349C3.99185 4.81349 4.64926 4.83554 5.26975 5.20182C5.88614 5.56568 6.47276 6.2729 6.47276 7.65848C6.47276 7.84062 6.62646 7.99568 6.8082 7.99795C6.893 8.01051 6.97359 7.97426 7.03133 7.91653C7.09018 7.85768 7.12949 7.77282 7.12949 7.68075C7.12949 6.29539 7.72148 5.5881 8.34076 5.22414C8.96413 4.85777 9.62164 4.83576 9.75178 4.83576H9.77405C9.95994 4.83576 10.1136 4.67731 10.1136 4.47399C10.1136 4.29049 9.95755 4.13449 9.77405 4.13449C9.64391 4.13449 8.9864 4.11247 8.36303 3.74611C7.74375 3.38214 7.15175 2.67486 7.15175 1.2895C7.15175 1.106 6.99575 0.95 6.81226 0.95C6.62876 0.95 6.47276 1.106 6.47276 1.2895C6.47276 2.67486 5.88076 3.38214 5.26148 3.74611C4.63811 4.11247 3.9806 4.13449 3.85046 4.13449H3.85033H3.8502H3.85007H3.84994H3.84981H3.84968H3.84956H3.84943H3.8493H3.84918H3.84905H3.84893H3.8488H3.84868H3.84856H3.84843H3.84831H3.84819H3.84807H3.84795H3.84783H3.84771H3.84759H3.84747H3.84735H3.84723H3.84712H3.847H3.84688H3.84677H3.84665H3.84654H3.84642H3.84631H3.8462H3.84608H3.84597H3.84586H3.84575H3.84564H3.84553H3.84541H3.84531H3.8452H3.84509H3.84498H3.84487H3.84476H3.84466H3.84455H3.84444H3.84434H3.84423H3.84413H3.84402H3.84392H3.84382H3.84371H3.84361H3.84351H3.84341H3.84331H3.84321H3.84311H3.84301H3.84291H3.84281H3.84271H3.84261H3.84252H3.84242H3.84232H3.84223H3.84213H3.84204H3.84194H3.84185H3.84175H3.84166H3.84157H3.84147H3.84138H3.84129H3.8412H3.84111H3.84102H3.84093H3.84084H3.84075H3.84066H3.84057H3.84048H3.84039H3.84031H3.84022H3.84013H3.84005H3.83996H3.83988H3.83979H3.83971H3.83962H3.83954H3.83946H3.83937H3.83929H3.83921H3.83913H3.83905H3.83897H3.83889H3.83881H3.83873H3.83865H3.83857H3.83849H3.83841H3.83834H3.83826H3.83818H3.83811H3.83803H3.83796H3.83788H3.83781H3.83773H3.83766H3.83758H3.83751H3.83744H3.83737H3.83729H3.83722H3.83715H3.83708H3.83701H3.83694H3.83687H3.8368H3.83673H3.83666H3.83659H3.83653H3.83646H3.83639H3.83632H3.83626H3.83619H3.83613H3.83606H3.83599H3.83593H3.83587H3.8358H3.83574H3.83567H3.83561H3.83555H3.83549H3.83543H3.83536H3.8353H3.83524H3.83518H3.83512H3.83506H3.835H3.83494H3.83488H3.83483H3.83477H3.83471H3.83465H3.8346H3.83454H3.83448H3.83443H3.83437H3.83432H3.83426H3.83421H3.83415H3.8341H3.83404H3.83399H3.83394H3.83388H3.83383H3.83378H3.83373H3.83368H3.83363H3.83357H3.83352H3.83347H3.83342H3.83337H3.83333H3.83328H3.83323H3.83318H3.83313H3.83308H3.83304H3.83299H3.83294H3.8329H3.83285H3.8328H3.83276H3.83271H3.83267H3.83262H3.83258H3.83254H3.83249H3.83245H3.83241H3.83236H3.83232H3.83228H3.83224H3.83219H3.83215H3.83211H3.83207H3.83203H3.83199H3.83195H3.83191H3.83187H3.83183H3.83179H3.83175H3.83172H3.83168H3.83164H3.8316H3.83156H3.83153H3.83149H3.83145H3.83142H3.83138H3.83135H3.83131H3.83128H3.83124H3.83121H3.83117H3.83114H3.8311H3.83107H3.83104H3.83101H3.83097H3.83094H3.83091H3.83088H3.83084H3.83081H3.83078H3.83075H3.83072H3.83069H3.83066H3.83063H3.8306H3.83057H3.83054H3.83051H3.83048H3.83045H3.83043H3.8304H3.83037H3.83034H3.83031H3.83029H3.83026H3.83023H3.83021H3.83018H3.83016H3.83013H3.8301H3.83008H3.83005H3.83003H3.83H3.82998H3.82996H3.82993H3.82991H3.82988H3.82986H3.82984H3.82981H3.82979H3.82977H3.82975H3.82973H3.8297H3.82968H3.82966H3.82964H3.82962H3.8296H3.82958H3.82956H3.82954H3.82952H3.8295H3.82948H3.82946H3.82944H3.82942H3.8294H3.82938H3.82936H3.82934H3.82933H3.82931H3.82929H3.82927H3.82926H3.82924H3.82922H3.82921H3.82919H3.82917H3.82916H3.82914H3.82912H3.82911H3.82909H3.82908H3.82906H3.82905H3.82903H3.82902H3.829H3.82899H3.82898H3.82896H3.82895H3.82893H3.82892H3.82891H3.82889H3.82888H3.82887H3.82886H3.82884H3.82883H3.82882H3.82881H3.82879H3.82878H3.82877H3.82876H3.82875H3.82874H3.82873H3.82872H3.82871H3.82869H3.82868H3.82867H3.82866H3.82865H3.82864H3.82863H3.82862H3.82862H3.82861H3.8286H3.82859H3.82858H3.82857H3.82856H3.82855H3.82854H3.82854H3.82853H3.82852H3.82851H3.82851H3.8285H3.82849H3.82848H3.82848H3.82847H3.82846H3.82845H3.82845H3.82844H3.82843H3.82843H3.82842H3.82842H3.82841H3.8284H3.8284H3.82839H3.82839H3.82838H3.82838H3.82837H3.82836H3.82836H3.82835H3.82835H3.82834H3.82834H3.82834H3.82833H3.82833H3.82832H3.82832H3.82831H3.82831H3.82831H3.8283H3.8283H3.82829H3.82829H3.82829H3.82828H3.82828H3.82828H3.82827H3.82827H3.82827H3.82826H3.82826H3.82826H3.82826H3.82825H3.82825H3.82825H3.82825H3.82824H3.82824H3.82824H3.82824H3.82823H3.82823H3.82823H3.82823H3.82823H3.82822H3.82822H3.82822H3.82821H3.82821H3.82821H3.82821H3.8282H3.8282H3.8282H3.8282H3.8282H3.82819H3.82819H3.82819L3.82819 4.18449V4.13398ZM8.27121 4.47266C7.68126 4.74259 7.1374 5.2188 6.79107 5.934C6.44218 5.18266 5.8634 4.74115 5.30877 4.47532C5.89872 4.20539 6.44257 3.72918 6.7889 3.01398C7.13779 3.76532 7.71658 4.20683 8.27121 4.47266Z" fill="white" stroke="white" stroke-width="0.1"/>
<path d="M1.26725 14.2279L1.26017 14.1784C1.08345 14.2036 0.950015 14.333 0.950015 14.5174C0.950015 14.7009 1.10602 14.8569 1.28951 14.8569C1.43091 14.8569 2.08832 14.8789 2.70881 15.2452C3.3252 15.6091 3.91181 16.3163 3.91181 17.7019C3.91181 17.8827 4.06334 18.0369 4.24338 18.0413C4.32889 18.0664 4.41154 18.0355 4.47039 17.9766C4.53064 17.9164 4.56854 17.8253 4.56854 17.7241C4.56854 16.3388 5.16054 15.6315 5.77982 15.2675C6.40318 14.9012 7.0607 14.8792 7.19084 14.8792H7.21311C7.39899 14.8792 7.55261 14.7207 7.55261 14.5174C7.55261 14.3339 7.39661 14.1779 7.21311 14.1779C7.08297 14.1779 6.42545 14.1559 5.80208 13.7895C5.18281 13.4255 4.59081 12.7183 4.59081 11.3329C4.59081 11.1494 4.43481 10.9934 4.25131 10.9934C4.06781 10.9934 3.91181 11.1494 3.91181 11.3329C3.91181 12.7183 3.31982 13.4255 2.70054 13.7895C2.07717 14.1559 1.41966 14.1779 1.28951 14.1779H1.28938H1.28925H1.28913H1.289H1.28887H1.28874H1.28861H1.28849H1.28836H1.28823H1.28811H1.28798H1.28786H1.28774H1.28761H1.28749H1.28737H1.28725H1.28713H1.28701H1.28688H1.28677H1.28665H1.28653H1.28641H1.28629H1.28617H1.28606H1.28594H1.28582H1.28571H1.28559H1.28548H1.28537H1.28525H1.28514H1.28503H1.28491H1.2848H1.28469H1.28458H1.28447H1.28436H1.28425H1.28414H1.28404H1.28393H1.28382H1.28371H1.28361H1.2835H1.28339H1.28329H1.28319H1.28308H1.28298H1.28287H1.28277H1.28267H1.28257H1.28247H1.28236H1.28226H1.28216H1.28206H1.28196H1.28187H1.28177H1.28167H1.28157H1.28148H1.28138H1.28128H1.28119H1.28109H1.281H1.2809H1.28081H1.28071H1.28062H1.28053H1.28044H1.28034H1.28025H1.28016H1.28007H1.27998H1.27989H1.2798H1.27971H1.27963H1.27954H1.27945H1.27936H1.27928H1.27919H1.2791H1.27902H1.27893H1.27885H1.27876H1.27868H1.2786H1.27851H1.27843H1.27835H1.27827H1.27819H1.2781H1.27802H1.27794H1.27786H1.27778H1.27771H1.27763H1.27755H1.27747H1.27739H1.27732H1.27724H1.27716H1.27709H1.27701H1.27694H1.27686H1.27679H1.27671H1.27664H1.27657H1.27649H1.27642H1.27635H1.27628H1.27621H1.27614H1.27606H1.27599H1.27592H1.27586H1.27579H1.27572H1.27565H1.27558H1.27551H1.27545H1.27538H1.27531H1.27525H1.27518H1.27512H1.27505H1.27499H1.27492H1.27486H1.27479H1.27473H1.27467H1.27461H1.27454H1.27448H1.27442H1.27436H1.2743H1.27424H1.27418H1.27412H1.27406H1.274H1.27394H1.27388H1.27382H1.27377H1.27371H1.27365H1.2736H1.27354H1.27348H1.27343H1.27337H1.27332H1.27326H1.27321H1.27315H1.2731H1.27305H1.27299H1.27294H1.27289H1.27284H1.27278H1.27273H1.27268H1.27263H1.27258H1.27253H1.27248H1.27243H1.27238H1.27233H1.27228H1.27224H1.27219H1.27214H1.27209H1.27205H1.272H1.27195H1.27191H1.27186H1.27182H1.27177H1.27172H1.27168H1.27164H1.27159H1.27155H1.2715H1.27146H1.27142H1.27138H1.27133H1.27129H1.27125H1.27121H1.27117H1.27113H1.27109H1.27105H1.27101H1.27097H1.27093H1.27089H1.27085H1.27081H1.27077H1.27073H1.2707H1.27066H1.27062H1.27058H1.27055H1.27051H1.27047H1.27044H1.2704H1.27037H1.27033H1.2703H1.27026H1.27023H1.2702H1.27016H1.27013H1.27009H1.27006H1.27003H1.27H1.26996H1.26993H1.2699H1.26987H1.26984H1.26981H1.26978H1.26975H1.26972H1.26969H1.26966H1.26963H1.2696H1.26957H1.26954H1.26951H1.26948H1.26945H1.26943H1.2694H1.26937H1.26934H1.26932H1.26929H1.26926H1.26924H1.26921H1.26919H1.26916H1.26914H1.26911H1.26909H1.26906H1.26904H1.26901H1.26899H1.26896H1.26894H1.26892H1.26889H1.26887H1.26885H1.26883H1.2688H1.26878H1.26876H1.26874H1.26872H1.2687H1.26867H1.26865H1.26863H1.26861H1.26859H1.26857H1.26855H1.26853H1.26851H1.26849H1.26848H1.26846H1.26844H1.26842H1.2684H1.26838H1.26837H1.26835H1.26833H1.26831H1.2683H1.26828H1.26826H1.26825H1.26823H1.26821H1.2682H1.26818H1.26817H1.26815H1.26813H1.26812H1.2681H1.26809H1.26807H1.26806H1.26805H1.26803H1.26802H1.268H1.26799H1.26798H1.26796H1.26795H1.26794H1.26792H1.26791H1.2679H1.26789H1.26788H1.26786H1.26785H1.26784H1.26783H1.26782H1.26781H1.26779H1.26778H1.26777H1.26776H1.26775H1.26774H1.26773H1.26772H1.26771H1.2677H1.26769H1.26768H1.26767H1.26766H1.26765H1.26764H1.26764H1.26763H1.26762H1.26761H1.2676H1.26759H1.26759H1.26758H1.26757H1.26756H1.26755H1.26755H1.26754H1.26753H1.26752H1.26752H1.26751H1.2675H1.2675H1.26749H1.26748H1.26748H1.26747H1.26747H1.26746H1.26745H1.26745H1.26744H1.26744H1.26743H1.26743H1.26742H1.26742H1.26741H1.26741H1.2674H1.2674H1.26739H1.26739H1.26738H1.26738H1.26737H1.26737H1.26737H1.26736H1.26736H1.26735H1.26735H1.26735H1.26734H1.26734H1.26734H1.26733H1.26733H1.26733H1.26732H1.26732H1.26732H1.26732H1.26731H1.26731H1.26731H1.2673H1.2673H1.2673H1.2673H1.2673H1.26729H1.26729H1.26729H1.26729H1.26728H1.26728H1.26728H1.26728H1.26727H1.26727H1.26727H1.26727H1.26726H1.26726H1.26726H1.26726H1.26726H1.26725H1.26725H1.26725L1.26725 14.1779L1.26725 14.2279ZM5.71027 14.5383C5.11962 14.8086 4.57517 15.2856 4.2289 16.0022C3.86331 15.25 3.30172 14.8076 2.74772 14.541C3.33771 14.2711 3.88161 13.7949 4.22796 13.0796C4.57685 13.831 5.15563 14.2725 5.71027 14.5383Z" fill="white" stroke="white" stroke-width="0.1"/>
</svg>
