<svg width="324" height="353" viewBox="0 0 324 353" fill="none" xmlns="http://www.w3.org/2000/svg">
<g clip-path="url(#clip0)">
<path d="M98.9086 220.143C104.373 224.644 109.976 229.006 115.856 232.95C118.172 234.528 119.376 236.06 117.987 238.937C111.92 251.28 105.577 263.392 96.8712 274.251C95.1579 273.23 95.9914 271.838 96.084 270.77C97.5195 254.389 93.7224 239.076 86.5914 224.412C78.5805 207.938 67.143 193.785 55.8445 179.539C55.7055 179.353 55.5203 179.214 55.3814 179.075C53.8533 177.497 52.4179 175.362 49.9174 175.919C46.9075 176.569 47.0927 179.539 46.676 181.859C44.3607 194.11 46.0277 206.175 48.2503 218.194C49.7321 226.268 52.0011 234.157 55.1036 241.814C60.5213 255.178 69.4583 265.619 81.4977 273.415C84.0909 275.086 86.5914 276.896 88.9529 278.937C90.6662 280.422 90.7125 281.861 89.2771 283.485C88.1194 284.784 86.8692 286.084 85.6652 287.383C75.015 298.288 62.3735 306.409 48.9449 313.323C47.9725 313.834 47.0464 314.437 45.4257 313.648C45.7035 311.467 45.9814 309.147 46.3055 306.78C49.871 280.886 48.8986 255.457 38.4336 231.001C35.3774 223.855 32.0434 216.894 27.5055 210.537C21.4857 202.045 15.6512 193.414 11.067 183.994C10.5576 183.019 10.0483 181.998 9.35368 181.117C7.59407 178.796 5.74184 178.843 4.21376 181.395C3.33395 182.88 2.8709 184.643 2.45415 186.36C-0.0926577 196.337 -0.324186 206.546 0.231481 216.755C1.2039 234.064 3.98223 251.188 8.28865 267.94C12.9192 285.805 23.4769 300.284 35.9794 313.416C37.137 314.669 38.8966 315.412 39.4523 317.732C37.739 318.613 36.072 319.449 34.3124 320.238C33.803 320.47 32.4138 320.794 32.1823 321.305C31.9508 321.769 32.5065 322.604 32.9695 322.743C33.8956 323.068 34.5439 322.511 35.3311 322.187C36.3961 321.723 37.4612 321.212 38.5262 320.748C40.3784 319.913 41.6287 320.238 43.1567 321.769C55.8908 334.669 71.2642 342.651 88.5825 347.941C119.376 357.315 148.919 352.953 178.137 341.584C179.388 341.12 180.592 340.563 181.749 339.96C188.001 336.711 188.232 333.602 182.444 329.286C173.553 322.651 163.181 319.449 152.716 316.572C130.859 310.585 108.633 309.843 86.2209 312.674C78.7657 313.648 71.3568 314.901 63.9016 316.015C59.5026 316.664 55.1499 316.943 50.7508 316.479C50.1952 314.251 52.0011 314.205 52.9272 313.695C65.8928 306.78 77.9322 298.567 88.1657 287.894C90.7125 285.249 92.6111 284.97 95.3431 287.476C98.7234 290.585 103.261 291.328 107.429 292.72C121.969 297.499 136.787 301.026 152.067 302.557C155.124 302.882 158.272 303.207 161.329 302.882C178.323 301.165 195.132 298.52 211.339 292.952C220.831 289.703 229.49 284.784 237.27 278.381C238.474 277.406 239.678 276.432 240.743 275.318C244.91 271.049 244.308 268.682 238.566 267.104C236.436 266.501 234.213 266.362 232.037 266.083C208.514 263.299 184.805 262.928 161.143 262.185C149.382 261.814 137.759 263.438 126.136 265.202C117.57 266.501 109.513 269.332 100.853 274.575C101.409 274.204 101.641 273.415 101.872 272.812C102.891 270.213 104.651 267.94 105.947 265.48C108.448 260.84 111.272 256.385 113.958 251.837C115.903 248.542 117.709 245.248 119.283 241.767C120.441 239.215 121.876 238.519 124.423 240.097C126.877 241.582 129.517 242.788 132.11 244.041C139.611 247.614 147.437 249.749 155.772 249.935C183.092 250.399 208.375 244.32 230.555 227.382C244.123 217.034 256.486 205.247 269.452 194.203C269.776 193.924 270.147 193.646 270.424 193.321C271.351 192.346 272.23 191.326 271.814 189.841C271.351 188.263 269.961 188.031 268.618 188.031C264.868 188.031 261.071 187.799 257.366 188.263C242.41 190.073 227.592 192.81 213.33 197.822C201.661 201.952 189.945 206.036 177.952 209.238C161.606 213.6 146.233 220.328 131.461 228.496C129.424 229.609 127.618 231.466 125.071 231.326C124.191 229.981 124.979 229.006 125.395 228.078C129.609 218.333 134.008 208.634 137.991 198.75C139.287 195.641 140.723 195.084 143.964 195.641C164.292 199.214 184.435 198.843 204.3 192.439C214.858 189.052 225.138 185.061 235.232 180.513C251.439 173.181 263.803 161.441 274.592 147.659C279.408 141.487 283.714 134.99 288.021 128.447C290.151 125.153 292.281 121.858 294.503 118.609C295.615 116.985 296.68 115.361 297.837 113.737C298.578 112.67 302.283 108.168 299.227 107.704C297.884 107.519 296.633 108.308 295.476 108.911C294.04 109.7 292.605 110.489 291.123 111.278C287.882 113.041 284.594 114.711 281.306 116.336C274.731 119.584 268.017 122.6 261.256 125.477C254.495 128.354 247.642 131.046 240.743 133.598C233.843 136.197 226.897 138.656 219.951 141.116C219.905 141.116 219.905 141.116 219.859 141.162C210.042 144.596 200.318 148.262 190.733 152.346C173.461 159.631 166.191 164.689 146.14 181.859C145.214 180.003 146.279 178.425 146.974 176.986C151.234 168.448 155.54 159.956 159.847 151.464C162.069 147.102 165.172 144.318 170.312 143.343C189.575 139.631 207.588 132.113 225.508 124.549C236.297 120.002 247.179 115.593 257.829 110.581C278.852 100.697 298.254 88.5393 312.285 69.2813C313.72 67.2859 315.202 65.337 316.082 63.0631C318.119 58.005 316.498 55.7312 311.22 56.5201C307.284 57.1233 303.394 58.0514 299.597 59.1651C292.373 61.2998 285.381 64.1304 278.528 67.2395C245.373 82.3674 214.117 100.651 185.176 122.925C183.092 124.549 181.008 126.22 178.925 127.89C177.026 129.375 175.544 131.371 172.627 132.577C173.553 129.422 175.776 127.566 177.304 125.477C184.296 116.011 191.844 107.055 200.873 99.4444C202.726 97.8666 204.532 96.3817 207.078 95.7784C235.649 89.2817 260.006 74.9427 281.399 55.2671C288.9 48.3529 296.217 41.2994 303.579 34.2458C309.969 28.074 316.406 21.995 323.259 16.4265C324.324 15.5912 324.185 13.9206 323.213 12.9925C321.592 11.554 319.369 12.4821 317.61 13.0389C315.48 13.735 313.35 14.4311 311.22 15.1271C307.006 16.5657 302.792 18.097 298.671 19.7676C290.428 23.0159 282.371 26.7283 274.546 30.8583C266.72 34.9883 259.126 39.536 251.81 44.5477C244.401 49.6058 237.316 55.1279 230.602 61.0677C230.139 61.439 229.722 61.8566 229.259 62.2278C220.6 69.9774 213.376 78.8407 207.356 88.7713C205.365 92.0196 203.05 94.8967 200.086 97.3097C191.288 104.456 184.111 113.18 176.239 121.44C179.897 115.686 183.787 110.025 187.213 104.085C202.309 78.2839 221.202 54.8495 234.399 27.842C238.196 20.046 241.9 12.2501 245.003 4.17565C245.466 3.01553 246.484 1.7162 245.234 0.509681C244.03 -0.650435 242.687 0.0920388 241.576 0.741704C239.076 2.13384 236.529 3.52598 234.213 5.24295C213.885 20.4637 195.502 37.5406 181.564 59.1187C174.989 69.2813 170.914 80.5113 166.515 91.602C165.866 93.2261 165.264 94.8967 163.69 96.5209C162.208 82.2282 160.819 67.9356 159.291 53.643C157.763 39.4432 156.096 25.2433 156.698 10.6723C152.855 11.2292 152.114 13.503 151.327 15.452C141.788 38.6543 135.397 62.3207 137.527 87.8432C138.963 104.92 141.325 121.765 144.983 138.471C146.372 144.735 147.02 151.186 148.224 157.497C149.474 163.854 149.058 169.794 145.446 175.362C144.242 177.219 143.408 179.26 142.436 181.209C140.491 180.467 141.139 178.982 141.139 177.775C141.093 155.223 136.509 133.737 126.044 113.644C120.996 103.992 116.644 94.0614 114.745 83.2027C114.514 81.9498 114.421 80.4649 112.708 80.0472C110.531 80.8825 110.346 83.0635 109.883 84.8733C102.567 115.315 106.41 143.854 124.516 169.887C127.803 174.62 131.137 179.307 134.471 184.04C137.481 188.309 138.268 192.671 135.953 197.729C132.202 205.989 129.007 214.481 125.534 222.927C124.979 222.602 124.377 222.417 124.377 222.185C123.728 198.982 115.532 178.054 105.484 157.589C102.659 151.835 100.02 145.942 97.3805 140.095C93.9539 132.577 91.5461 124.781 90.3421 116.614C90.1106 115.129 90.2958 113.459 88.9066 112.345C87.2396 112.391 86.6377 113.644 86.1283 114.851C81.2199 126.73 76.3578 138.61 73.9499 151.371C68.7637 179.4 76.9598 202.184 98.9086 220.143ZM42.4158 307.848C40.0543 297.035 36.0257 286.78 32.5065 276.292C30.3301 269.749 28.2927 263.206 27.1813 256.385C24.9587 242.324 20.6985 228.774 16.9015 215.131C16.6236 214.064 16.8089 212.254 14.0305 212.625C18.8463 229.285 23.0138 245.944 26.4867 262.835C30.006 279.912 38.202 295.736 41.4897 313.555C38.7114 313.323 37.4148 312.07 36.2572 310.771C24.403 297.407 13.9842 283.207 9.77043 265.387C6.89948 253.322 4.86204 241.071 3.33395 228.728C1.85218 216.616 1.48173 204.412 3.28765 192.3C3.79701 188.959 4.07484 185.386 6.66795 182.88C8.56648 183.437 9.02954 184.782 9.58521 185.943C14.2621 195.27 20.1429 203.855 26.1163 212.393C30.0986 218.055 33.0621 224.18 35.8405 230.491C46.3981 254.621 47.741 279.773 44.1755 305.481C44.1755 306.316 44.2681 307.244 42.4158 307.848ZM77.7007 315.922C97.9362 312.72 118.172 312.024 138.407 315.551C152.669 318.01 166.376 322.001 178.971 329.426C181.24 330.771 184.203 331.978 184.018 334.994C183.833 337.779 180.638 338.196 178.508 339.078C149.011 351.05 119.098 355.227 87.8879 345.575C73.6721 341.166 61.1233 334.205 49.5006 325.249C48.6671 324.6 47.0464 324.043 48.0188 321.676C69.412 330.539 92.0554 333.37 114.791 335.922C93.0278 330.818 70.5233 328.915 49.9174 319.356C59.4563 319.356 68.5785 317.361 77.7007 315.922ZM93.3057 270.306C90.8052 265.991 88.9066 261.489 86.7766 257.174C84.5076 252.626 82.0997 248.125 79.6455 243.67C77.3302 239.401 74.7834 235.224 72.5608 230.909C70.2455 226.407 68.1617 221.721 65.9391 217.173C63.9016 213.043 63.2997 208.17 59.5026 204.829C59.5952 207.103 60.5676 209.099 61.2622 211.14C65.8002 223.948 72.6071 235.596 79.2751 247.382C83.5352 254.9 87.3785 262.649 90.2958 270.77C90.9904 272.766 92.0091 274.761 91.685 277.453C87.749 275.828 85.2022 272.998 82.0997 271.095C68.8563 262.974 60.4287 251.141 55.3814 236.709C50.9361 224.087 48.4356 211.048 47.7873 197.729C47.4632 191.326 47.5558 184.922 49.9637 178.332C52.9735 179.075 54.2701 180.931 55.6129 182.648C62.0494 191.094 68.6711 199.4 74.6908 208.124C82.146 218.936 87.9342 230.63 91.4997 243.345C93.9539 252.162 94.6948 261.164 93.3057 270.306ZM120.163 268.589C130.767 266.315 141.51 264.552 152.345 264.506C179.341 264.32 206.291 265.434 233.102 268.404C235.093 268.636 237.038 268.914 238.983 269.425C240.881 269.935 241.483 271.327 240.048 272.905C238.89 274.204 237.501 275.364 236.158 276.524C228.981 282.557 220.924 287.244 212.126 290.399C195.595 296.386 178.323 299.031 160.912 300.794C157.67 301.119 154.29 300.701 151.002 300.33C135.536 298.706 120.58 294.761 105.808 290.075C104.326 289.611 102.984 288.682 101.594 287.94C135.536 291.467 169.247 295.318 202.077 282.789C198.604 282.139 195.456 283.717 192.214 284.552C161.004 292.534 129.841 288.961 98.6771 284.274C97.3806 284.088 95.8988 283.949 95.5283 282.371C95.0653 280.469 96.5934 279.587 97.8899 278.798C104.975 274.483 112.013 270.306 120.163 268.589ZM127.803 233.136C129.285 232.208 130.813 231.28 132.341 230.398C147.252 221.953 162.903 215.317 179.434 210.908C188.834 208.402 198.188 205.525 207.264 202.091C221.433 196.708 236.066 193.46 250.93 191.047C256.811 190.073 262.645 189.516 268.572 190.212C268.711 190.676 268.896 191.14 269.035 191.604C262.414 197.451 255.746 203.205 249.216 209.145C240.326 217.173 231.065 224.69 221.016 231.234C199.438 245.248 175.544 248.821 150.493 247.382C147.854 247.243 145.26 246.593 142.667 245.897C137.203 244.459 132.156 241.582 129.331 238.519C142.019 239.494 154.29 237.962 166.237 234.389C183.648 229.192 200.364 222.092 217.451 215.92C218.423 215.549 220.229 215.502 219.581 213.321C217.451 214.017 215.367 214.621 213.283 215.317C198.049 220.653 183.138 227.011 167.719 231.744C156.652 235.178 145.353 237.127 133.73 236.57C131.369 236.431 128.498 236.988 126.738 234.482C127.294 233.832 127.479 233.368 127.803 233.136ZM212.218 86.8687C215.876 78.7479 221.618 72.3905 227.916 66.4971C253.754 42.2739 284.038 25.893 317.656 15.4056C318.397 15.1735 319.369 14.6631 319.786 16.148C314.183 21.3918 308.58 26.6355 302.977 31.8792C293.762 40.5105 284.733 49.281 275.379 57.7266C258.894 72.6225 239.77 83.0635 218.979 90.5347C216.617 91.37 214.256 92.6229 210.69 91.9268C224.767 80.0936 240.465 72.1584 254.634 61.903C239.77 68.9565 226.11 78.0054 212.218 86.8687ZM173.692 135.269C177.397 132.113 181.008 128.818 184.852 125.802C214.256 103.11 245.975 84.3164 279.778 69.0029C286.446 65.9866 293.207 63.2487 300.245 61.1605C303.44 60.2324 306.682 59.5364 309.923 58.8403C311.359 58.5619 313.211 57.7266 314.183 59.4436C315.017 60.9285 313.998 62.4599 313.211 63.7592C311.683 66.2186 310.108 68.6317 308.349 70.8591C300.245 81.3001 290.151 89.421 279.084 96.6137C261.673 107.936 242.178 114.804 223.378 123.018C211.848 128.076 200.179 132.995 188.047 136.568C185.222 137.403 182.398 138.61 179.249 137.914C194.02 130.35 209.486 124.456 223.934 116.382C238.288 108.354 251.022 97.913 264.266 88.2144C248.753 96.196 235.649 107.983 220.183 116.011C204.671 124.085 188.417 130.396 172.72 138.007C172.442 137.635 172.21 137.264 171.932 136.939C172.488 136.429 173.09 135.779 173.692 135.269ZM161.792 131.092C162.996 116.753 164.755 102.739 169.756 88.9105C182.861 52.6221 208.097 26.8211 238.474 5.05733C239.585 4.26846 240.743 2.7371 242.641 3.94362C235.973 21.6238 227.592 38.4223 217.08 54.0606C205.874 70.8591 194.9 87.704 184.296 104.874C178.647 114.015 172.812 123.111 167.07 132.206C166.098 131.464 166.283 130.535 166.422 129.7C168.552 116.985 171.701 104.595 177.211 92.8549C183.138 80.0936 191.335 68.8637 200.133 58.005C202.031 55.6848 204.115 53.4574 204.856 49.4666C181.564 74.6179 166.422 102.646 162.949 136.522C161.421 134.619 161.653 132.809 161.792 131.092ZM146.789 136.939C143.501 121.533 141.186 106.034 139.843 90.3027C138.129 70.4879 140.769 51.3692 147.205 32.7145C149.011 27.4708 150.076 21.8558 154.29 16.3801C154.938 38.9791 157.902 60.2324 160.217 81.5786C162.301 100.976 160.541 120.094 157.624 139.167C157.346 141.069 157.393 143.25 155.355 145.849C156.05 131.046 156.096 117.31 154.336 103.667C152.577 90.1634 149.382 76.9381 146.094 63.7592C147.483 79.3047 151.697 94.4327 152.947 109.978C154.244 125.849 154.151 141.673 151.188 157.45C149.382 150.629 148.224 143.761 146.789 136.939ZM144.427 188.031C152.16 178.147 161.514 170.211 172.396 163.9C187.815 154.944 204.3 148.633 221.063 142.879C246.207 134.294 270.888 124.596 294.364 111.974C294.92 111.695 295.522 111.417 296.031 112.438C288.9 122.693 282.51 133.505 274.962 143.622C263.247 159.353 249.448 172.346 231.111 180.049C220.275 184.597 209.347 188.68 198.049 191.975C182.675 196.476 167.024 195.827 151.327 194.806C150.678 194.759 149.984 194.62 149.567 193.321C167.163 188.402 184.805 183.669 201.614 176.383C218.886 168.866 245.327 152.67 248.661 146.591C231.62 157.543 216.108 168.587 198.28 175.502C180.592 182.369 162.718 188.495 143.64 191.79C143.269 189.377 143.918 188.727 144.427 188.031ZM114.838 116.8C117.107 130.628 120.672 144.086 127.062 156.661C130.582 163.576 133.684 170.675 136.231 178.007C136.74 179.539 137.713 181.117 136.74 183.344C125.997 169.051 115.81 155.176 111.782 137.821C107.799 120.698 106.873 103.667 112.8 86.5903C115.255 98.6555 121.413 108.957 126.599 119.677C134.147 135.315 137.62 151.882 138.824 169.051C138.963 171.14 139.38 173.321 138.361 176.383C133.499 165.617 129.1 155.78 124.655 145.942C120.07 135.779 118.913 124.688 115.995 113.227C114.514 115.083 114.699 115.964 114.838 116.8ZM74.876 160.42C75.8485 149.747 78.5342 139.445 82.748 129.607C84.3224 125.941 84.8781 121.765 88.2584 117.264C90.8515 132.902 97.149 145.617 103.447 158.285C108.216 167.845 112.245 177.683 115.856 187.66C119.283 197.08 121.089 206.917 121.876 216.894C122.061 219.632 122.478 222.463 121.413 225.155C119.978 224.876 119.561 224.087 119.19 223.298C115.579 215.92 111.18 209.006 107.105 201.859C98.2604 186.36 90.4347 170.49 89.6938 152.16C89.6475 151.278 89.879 149.793 87.5175 149.933C88.3973 160.559 89.6012 171 94.1392 180.838C98.3993 190.119 102.984 199.214 108.216 207.985C111.504 213.507 114.56 219.168 117.57 224.83C118.681 226.871 119.839 229.053 119.607 231.326C118.264 232.115 117.523 231.605 116.783 231.141C110.531 226.964 104.604 222.324 98.8623 217.451C81.3125 202.463 72.746 183.669 74.876 160.42Z" fill="#C0B0A3"/>
</g>
<defs>
<clipPath id="clip0">
<rect width="324" height="353" fill="white"/>
</clipPath>
</defs>
</svg>
