<svg width="34" height="34" viewBox="0 0 34 34" fill="none" xmlns="http://www.w3.org/2000/svg">
<path d="M17 34C26.3739 34 34 26.3739 34 17C34 7.62614 26.3739 0 17 0C7.62614 0 0 7.62614 0 17C0 26.3739 7.62614 34 17 34ZM17 1.51592C25.5381 1.51592 32.4841 8.46193 32.4841 17C32.4841 25.5381 25.5381 32.4841 17 32.4841C8.46193 32.4841 1.51592 25.5381 1.51592 17C1.51592 8.46193 8.46193 1.51592 17 1.51592Z" fill="#00442A"/>
<path d="M12.8098 15.4722C14.5435 15.4722 15.9486 14.0667 15.9486 12.3334C15.949 10.5996 14.5435 9.19409 12.8098 9.19409C11.076 9.19409 9.6709 10.5996 9.6709 12.3329C9.67259 14.0659 11.0768 15.4701 12.8098 15.4722ZM12.8098 10.71C13.706 10.71 14.4327 11.4367 14.4327 12.3329C14.4331 13.2296 13.7065 13.9563 12.8098 13.9563C11.9135 13.9563 11.1868 13.2296 11.1868 12.3329C11.1877 11.4371 11.9139 10.7113 12.8098 10.71Z" fill="#00442A"/>
<path d="M17.8612 21.8573C17.8612 23.5911 19.2667 24.9962 21.0001 24.9962C22.7338 24.9962 24.1393 23.5911 24.1393 21.8573C24.1393 20.1235 22.7338 18.718 21.0001 18.718C19.2672 18.7201 17.8633 20.1244 17.8612 21.8573ZM22.6234 21.8573C22.6234 22.7536 21.8968 23.4802 21.0001 23.4802C20.1038 23.4802 19.3771 22.7536 19.3771 21.8573C19.3771 20.961 20.1038 20.2344 21.0001 20.2339C21.8963 20.2352 22.6221 20.961 22.6234 21.8573Z" fill="#00442A"/>
<path d="M11.2289 25.8492C11.5796 26.078 12.0495 25.9791 12.2779 25.6284L22.9926 9.19942C23.141 8.97229 23.1571 8.6834 23.0349 8.44146C22.9122 8.19952 22.6698 8.04133 22.3991 8.02695C22.1284 8.01257 21.8704 8.14369 21.7228 8.37125L11.0081 24.8002C10.7793 25.1513 10.8783 25.6208 11.2289 25.8492Z" fill="#00442A"/>
</svg>
