<svg width="20" height="20" viewBox="0 0 20 20" fill="none" xmlns="http://www.w3.org/2000/svg">
<path d="M18.6725 11.2903L18.673 11.2885H18.6593C18.4073 11.2885 17.1882 11.24 16.0336 10.496C14.8827 9.75438 13.7878 8.31663 13.7878 5.52136C13.7878 5.32713 13.6361 5.15361 13.4483 5.15361C13.2606 5.15361 13.1088 5.32713 13.1088 5.52136C13.1088 8.31663 12.0139 9.75441 10.8658 10.496C9.71394 11.2401 8.5004 11.2885 8.25962 11.2885C8.18403 11.2885 8.1055 11.3152 8.05002 11.3723C8.0226 11.3892 8.00303 11.4117 7.98875 11.4305C7.98261 11.4386 7.97681 11.4468 7.97198 11.4538C7.97078 11.4555 7.96963 11.4571 7.96855 11.4587C7.96259 11.4671 7.95864 11.4724 7.95543 11.4759L7.95014 11.4817L7.94689 11.4889C7.89635 11.5998 7.89635 11.7371 7.94689 11.8481C7.99949 11.9635 8.12855 12.0484 8.25962 12.0484H8.25962H8.25963H8.25963H8.25963H8.25964H8.25964H8.25965H8.25965H8.25966H8.25966H8.25966H8.25967H8.25967H8.25968H8.25968H8.25969H8.25969H8.2597H8.25971H8.25971H8.25972H8.25972H8.25973H8.25973H8.25973H8.25974H8.25974H8.25975H8.25975H8.25976H8.25976H8.25976H8.25977H8.25977H8.25978H8.25978H8.25979H8.25979H8.2598H8.2598H8.25981H8.25982H8.25982H8.25983H8.25983H8.25984H8.25984H8.25985H8.25986H8.25986H8.25987H8.25988H8.25988H8.25989H8.2599H8.2599H8.25991H8.25992H8.25993H8.25993H8.25994H8.25995H8.25996H8.25997H8.25997H8.25998H8.25999H8.26H8.26001H8.26002H8.26003H8.26004H8.26004H8.26005H8.26006H8.26007H8.26008H8.26009H8.2601H8.26011H8.26012H8.26013H8.26014H8.26016H8.26017H8.26018H8.26019H8.2602H8.26021H8.26022H8.26024H8.26025H8.26026H8.26027H8.26028H8.2603H8.26031H8.26032H8.26034H8.26035H8.26036H8.26038H8.26039H8.2604H8.26042H8.26043H8.26045H8.26046H8.26048H8.26049H8.26051H8.26052H8.26054H8.26055H8.26057H8.26059H8.2606H8.26062H8.26063H8.26065H8.26067H8.26069H8.2607H8.26072H8.26074H8.26076H8.26077H8.26079H8.26081H8.26083H8.26085H8.26087H8.26089H8.26091H8.26093H8.26095H8.26097H8.26099H8.26101H8.26103H8.26105H8.26107H8.26109H8.26111H8.26113H8.26115H8.26118H8.2612H8.26122H8.26124H8.26127H8.26129H8.26131H8.26134H8.26136H8.26138H8.26141H8.26143H8.26146H8.26148H8.26151H8.26153H8.26156H8.26158H8.26161H8.26164H8.26166H8.26169H8.26172H8.26174H8.26177H8.2618H8.26183H8.26185H8.26188H8.26191H8.26194H8.26197H8.262H8.26203H8.26206H8.26209H8.26212H8.26215H8.26218H8.26221H8.26224H8.26227H8.2623H8.26234H8.26237H8.2624H8.26243H8.26247H8.2625H8.26253H8.26257H8.2626H8.26264H8.26267H8.26271H8.26274H8.26278H8.26281H8.26285H8.26288H8.26292H8.26296H8.26299H8.26303H8.26307H8.26311H8.26314H8.26318H8.26322H8.26326H8.2633H8.26334H8.26338H8.26342H8.26346H8.2635H8.26354H8.26358H8.26362H8.26366H8.26371H8.26375H8.26379H8.26383H8.26388H8.26392H8.26396H8.26401H8.26405H8.2641H8.26414H8.26419H8.26423H8.26428H8.26433H8.26437H8.26442H8.26447H8.26451H8.26456H8.26461H8.26466H8.26471H8.26475H8.2648H8.26485H8.2649H8.26495H8.265H8.26505H8.26511H8.26516H8.26521H8.26526H8.26531H8.26537H8.26542H8.26547H8.26553H8.26558H8.26564H8.26569H8.26574H8.2658H8.26586H8.26591H8.26597H8.26602H8.26608H8.26614H8.2662H8.26626H8.26631H8.26637H8.26643H8.26649H8.26655H8.26661H8.26667H8.26673H8.26679H8.26685H8.26692H8.26698H8.26704H8.2671H8.26717H8.26723H8.26729H8.26736H8.26742H8.26749H8.26755H8.26762H8.26769H8.26775H8.26782H8.26789H8.26795H8.26802H8.26809H8.26816H8.26823H8.2683H8.26837H8.26844H8.26851H8.26858H8.26865H8.26872H8.26879H8.26887H8.26894H8.26901H8.26909H8.26916H8.26923H8.26931H8.26938H8.26946H8.26954H8.26961H8.26969H8.26977H8.26984H8.26992H8.27H8.27008H8.27016H8.27024H8.27032H8.2704H8.27048H8.27056H8.27064H8.27072H8.2708H8.27089H8.27097H8.27105H8.27114H8.27122H8.27131H8.27139H8.27148H8.27156H8.27165H8.27174H8.27182H8.27191H8.272H8.27209H8.27218H8.27227H8.27236H8.27245H8.27254H8.27263H8.27272H8.27281H8.2729H8.27299H8.27309H8.27318H8.27328H8.27337H8.27346H8.27356H8.27366H8.27375H8.27385H8.27395H8.27404H8.27414H8.27424H8.27434H8.27444H8.27454H8.27464H8.27474H8.27484H8.27494H8.27504H8.27514H8.27525H8.27535H8.27545H8.27556H8.27566H8.27577H8.27587H8.27598H8.27609H8.27619H8.2763H8.27641H8.27652H8.27663H8.27673H8.27684H8.27695H8.27707H8.27718H8.27729H8.2774H8.27751H8.27763H8.27774H8.27785H8.27797H8.27808H8.2782H8.27831H8.27843H8.27855H8.27866H8.27878H8.2789H8.27902H8.27914H8.27926H8.27938H8.2795H8.27962H8.27974H8.27986H8.27999H8.28011H8.28023H8.28036H8.28048H8.28061H8.28073H8.28086H8.28099H8.28111H8.28124H8.28137H8.2815H8.28163H8.28176H8.28189C8.53387 12.0484 9.74735 12.0969 10.8964 12.8409C12.0417 13.5824 13.1311 15.0202 13.1311 17.8156C13.1311 18.0098 13.2828 18.1833 13.4706 18.1833C13.6584 18.1833 13.8101 18.0098 13.8101 17.8156C13.8101 15.0325 14.8994 13.5946 16.0449 12.85C17.194 12.1029 18.4076 12.0484 18.6593 12.0484C18.7949 12.0484 18.8971 11.959 18.9678 11.8555L18.9684 11.856L18.972 11.8481C19.0222 11.738 19.0237 11.5986 18.9479 11.4849C18.8923 11.3679 18.7624 11.3149 18.6725 11.2903ZM16.7766 11.6562C15.5712 12.1115 14.1038 13.0943 13.4483 15.2417C12.7928 13.0943 11.3254 12.1115 10.1201 11.6562C11.3254 11.201 12.7928 10.2182 13.4483 8.07081C14.1038 10.2182 15.5712 11.201 16.7766 11.6562Z" fill="#00442A" stroke="#00442A" stroke-width="0.1"/>
<path d="M3.82827 4.44456L3.82052 4.44578C3.64056 4.47399 3.51104 4.61694 3.51104 4.81291C3.51104 5.00714 3.66276 5.18066 3.85053 5.18066C3.99141 5.18066 4.64804 5.20475 5.26806 5.60646C5.88434 6.00575 6.47283 6.7835 6.47283 8.30809C6.47283 8.50078 6.62217 8.67309 6.80789 8.6758C6.89472 8.68978 6.97597 8.64879 7.03301 8.58618C7.09137 8.52213 7.12956 8.43073 7.12956 8.33253C7.12956 6.80814 7.72346 6.03034 8.3426 5.63096C8.96551 5.22915 9.62225 5.2051 9.75186 5.2051H9.77413C9.96416 5.2051 10.1136 5.02904 10.1136 4.81291C10.1136 4.61869 9.96191 4.44517 9.77413 4.44517C9.64452 4.44517 8.98778 4.42112 8.36487 4.01931C7.74573 3.61993 7.15183 2.84213 7.15183 1.31774C7.15183 1.12352 7.00011 0.95 6.81233 0.95C6.62456 0.95 6.47283 1.12352 6.47283 1.31774C6.47283 2.84213 5.87894 3.61993 5.25979 4.01931C4.63689 4.42112 3.98015 4.44517 3.85053 4.44517H3.8504H3.85027H3.85015H3.85002H3.84989H3.84976H3.84963H3.84951H3.84938H3.84925H3.84913H3.849H3.84888H3.84876H3.84863H3.84851H3.84839H3.84827H3.84815H3.84803H3.8479H3.84779H3.84767H3.84755H3.84743H3.84731H3.84719H3.84708H3.84696H3.84684H3.84673H3.84661H3.8465H3.84639H3.84627H3.84616H3.84605H3.84593H3.84582H3.84571H3.8456H3.84549H3.84538H3.84527H3.84516H3.84506H3.84495H3.84484H3.84473H3.84463H3.84452H3.84441H3.84431H3.84421H3.8441H3.844H3.84389H3.84379H3.84369H3.84359H3.84349H3.84338H3.84328H3.84318H3.84308H3.84298H3.84289H3.84279H3.84269H3.84259H3.8425H3.8424H3.8423H3.84221H3.84211H3.84202H3.84192H3.84183H3.84173H3.84164H3.84155H3.84146H3.84136H3.84127H3.84118H3.84109H3.841H3.84091H3.84082H3.84073H3.84065H3.84056H3.84047H3.84038H3.8403H3.84021H3.84012H3.84004H3.83995H3.83987H3.83978H3.8397H3.83962H3.83953H3.83945H3.83937H3.83929H3.83921H3.83912H3.83904H3.83896H3.83888H3.8388H3.83873H3.83865H3.83857H3.83849H3.83841H3.83834H3.83826H3.83818H3.83811H3.83803H3.83796H3.83788H3.83781H3.83773H3.83766H3.83759H3.83751H3.83744H3.83737H3.8373H3.83723H3.83716H3.83708H3.83701H3.83694H3.83688H3.83681H3.83674H3.83667H3.8366H3.83653H3.83647H3.8364H3.83633H3.83627H3.8362H3.83614H3.83607H3.83601H3.83594H3.83588H3.83581H3.83575H3.83569H3.83563H3.83556H3.8355H3.83544H3.83538H3.83532H3.83526H3.8352H3.83514H3.83508H3.83502H3.83496H3.8349H3.83484H3.83479H3.83473H3.83467H3.83462H3.83456H3.8345H3.83445H3.83439H3.83434H3.83428H3.83423H3.83417H3.83412H3.83407H3.83401H3.83396H3.83391H3.83386H3.8338H3.83375H3.8337H3.83365H3.8336H3.83355H3.8335H3.83345H3.8334H3.83335H3.8333H3.83326H3.83321H3.83316H3.83311H3.83307H3.83302H3.83297H3.83293H3.83288H3.83284H3.83279H3.83274H3.8327H3.83266H3.83261H3.83257H3.83252H3.83248H3.83244H3.8324H3.83235H3.83231H3.83227H3.83223H3.83219H3.83215H3.83211H3.83207H3.83203H3.83199H3.83195H3.83191H3.83187H3.83183H3.83179H3.83175H3.83172H3.83168H3.83164H3.8316H3.83157H3.83153H3.83149H3.83146H3.83142H3.83139H3.83135H3.83132H3.83128H3.83125H3.83122H3.83118H3.83115H3.83111H3.83108H3.83105H3.83102H3.83098H3.83095H3.83092H3.83089H3.83086H3.83083H3.8308H3.83077H3.83074H3.83071H3.83068H3.83065H3.83062H3.83059H3.83056H3.83053H3.8305H3.83047H3.83045H3.83042H3.83039H3.83036H3.83034H3.83031H3.83028H3.83026H3.83023H3.83021H3.83018H3.83015H3.83013H3.83011H3.83008H3.83006H3.83003H3.83001H3.82998H3.82996H3.82994H3.82991H3.82989H3.82987H3.82985H3.82982H3.8298H3.82978H3.82976H3.82974H3.82972H3.82969H3.82967H3.82965H3.82963H3.82961H3.82959H3.82957H3.82955H3.82953H3.82951H3.8295H3.82948H3.82946H3.82944H3.82942H3.8294H3.82939H3.82937H3.82935H3.82933H3.82932H3.8293H3.82928H3.82927H3.82925H3.82923H3.82922H3.8292H3.82919H3.82917H3.82915H3.82914H3.82912H3.82911H3.82909H3.82908H3.82907H3.82905H3.82904H3.82902H3.82901H3.829H3.82898H3.82897H3.82896H3.82894H3.82893H3.82892H3.82891H3.82889H3.82888H3.82887H3.82886H3.82885H3.82884H3.82882H3.82881H3.8288H3.82879H3.82878H3.82877H3.82876H3.82875H3.82874H3.82873H3.82872H3.82871H3.8287H3.82869H3.82868H3.82867H3.82866H3.82866H3.82865H3.82864H3.82863H3.82862H3.82861H3.8286H3.8286H3.82859H3.82858H3.82857H3.82857H3.82856H3.82855H3.82854H3.82854H3.82853H3.82852H3.82852H3.82851H3.8285H3.8285H3.82849H3.82849H3.82848H3.82847H3.82847H3.82846H3.82846H3.82845H3.82845H3.82844H3.82844H3.82843H3.82843H3.82842H3.82842H3.82841H3.82841H3.8284H3.8284H3.82839H3.82839H3.82839H3.82838H3.82838H3.82837H3.82837H3.82837H3.82836H3.82836H3.82836H3.82835H3.82835H3.82835H3.82834H3.82834H3.82834H3.82834H3.82833H3.82833H3.82833H3.82832H3.82832H3.82832H3.82832H3.82831H3.82831H3.82831H3.82831H3.82831H3.8283H3.8283H3.8283H3.8283H3.82829H3.82829H3.82829H3.82829H3.82828H3.82828H3.82828H3.82828H3.82827H3.82827H3.82827H3.82827H3.82827L3.82827 4.49517V4.44456ZM8.27985 4.81158C7.68591 5.10696 7.13883 5.63043 6.79117 6.41738C6.44078 5.59038 5.85819 5.10552 5.30028 4.81425C5.89422 4.51887 6.4413 3.9954 6.78896 3.20844C7.13935 4.03545 7.72194 4.52031 8.27985 4.81158Z" fill="#00442A" stroke="#00442A" stroke-width="0.1"/>
<path d="M1.26723 15.5181L1.25948 15.4687C1.07953 15.4969 0.95 15.6399 0.95 15.8359C0.95 16.0301 1.10172 16.2036 1.2895 16.2036C1.43037 16.2036 2.087 16.2277 2.70702 16.6294C3.32331 17.0287 3.9118 17.8064 3.9118 19.331C3.9118 19.5223 4.05888 19.6934 4.24264 19.6987C4.3302 19.7266 4.41385 19.6913 4.47198 19.6275C4.53155 19.5621 4.56853 19.464 4.56853 19.3555C4.56853 17.8311 5.16242 17.0533 5.78157 16.6539C6.40447 16.2521 7.06121 16.228 7.19083 16.228H7.2131C7.40313 16.228 7.55259 16.052 7.55259 15.8359C7.55259 15.6416 7.40087 15.4681 7.2131 15.4681C7.08348 15.4681 6.42674 15.4441 5.80384 15.0423C5.18469 14.6429 4.5908 13.8651 4.5908 12.3407C4.5908 12.1465 4.43907 11.9729 4.2513 11.9729C4.06352 11.9729 3.9118 12.1465 3.9118 12.3407C3.9118 13.8651 3.3179 14.6429 2.69876 15.0423C2.07585 15.4441 1.41911 15.4681 1.2895 15.4681H1.28937H1.28924H1.28911H1.28898H1.28885H1.28873H1.2886H1.28847H1.28835H1.28822H1.28809H1.28797H1.28785H1.28772H1.2876H1.28748H1.28735H1.28723H1.28711H1.28699H1.28687H1.28675H1.28663H1.28651H1.28639H1.28628H1.28616H1.28604H1.28593H1.28581H1.28569H1.28558H1.28546H1.28535H1.28524H1.28512H1.28501H1.2849H1.28479H1.28468H1.28457H1.28446H1.28435H1.28424H1.28413H1.28402H1.28391H1.2838H1.2837H1.28359H1.28349H1.28338H1.28327H1.28317H1.28307H1.28296H1.28286H1.28276H1.28265H1.28255H1.28245H1.28235H1.28225H1.28215H1.28205H1.28195H1.28185H1.28175H1.28165H1.28156H1.28146H1.28136H1.28127H1.28117H1.28108H1.28098H1.28089H1.28079H1.2807H1.28061H1.28051H1.28042H1.28033H1.28024H1.28015H1.28006H1.27997H1.27988H1.27979H1.2797H1.27961H1.27952H1.27943H1.27935H1.27926H1.27917H1.27909H1.279H1.27892H1.27883H1.27875H1.27867H1.27858H1.2785H1.27842H1.27833H1.27825H1.27817H1.27809H1.27801H1.27793H1.27785H1.27777H1.27769H1.27761H1.27753H1.27746H1.27738H1.2773H1.27722H1.27715H1.27707H1.277H1.27692H1.27685H1.27677H1.2767H1.27662H1.27655H1.27648H1.27641H1.27633H1.27626H1.27619H1.27612H1.27605H1.27598H1.27591H1.27584H1.27577H1.2757H1.27563H1.27557H1.2755H1.27543H1.27536H1.2753H1.27523H1.27517H1.2751H1.27504H1.27497H1.27491H1.27484H1.27478H1.27472H1.27465H1.27459H1.27453H1.27447H1.2744H1.27434H1.27428H1.27422H1.27416H1.2741H1.27404H1.27398H1.27393H1.27387H1.27381H1.27375H1.27369H1.27364H1.27358H1.27352H1.27347H1.27341H1.27336H1.2733H1.27325H1.27319H1.27314H1.27308H1.27303H1.27298H1.27293H1.27287H1.27282H1.27277H1.27272H1.27267H1.27262H1.27257H1.27252H1.27247H1.27242H1.27237H1.27232H1.27227H1.27222H1.27217H1.27213H1.27208H1.27203H1.27198H1.27194H1.27189H1.27185H1.2718H1.27175H1.27171H1.27167H1.27162H1.27158H1.27153H1.27149H1.27145H1.2714H1.27136H1.27132H1.27128H1.27123H1.27119H1.27115H1.27111H1.27107H1.27103H1.27099H1.27095H1.27091H1.27087H1.27083H1.27079H1.27076H1.27072H1.27068H1.27064H1.27061H1.27057H1.27053H1.2705H1.27046H1.27042H1.27039H1.27035H1.27032H1.27028H1.27025H1.27021H1.27018H1.27015H1.27011H1.27008H1.27005H1.27001H1.26998H1.26995H1.26992H1.26989H1.26985H1.26982H1.26979H1.26976H1.26973H1.2697H1.26967H1.26964H1.26961H1.26958H1.26955H1.26952H1.2695H1.26947H1.26944H1.26941H1.26938H1.26936H1.26933H1.2693H1.26928H1.26925H1.26922H1.2692H1.26917H1.26915H1.26912H1.26909H1.26907H1.26905H1.26902H1.269H1.26897H1.26895H1.26893H1.2689H1.26888H1.26886H1.26883H1.26881H1.26879H1.26877H1.26874H1.26872H1.2687H1.26868H1.26866H1.26864H1.26862H1.2686H1.26858H1.26856H1.26854H1.26852H1.2685H1.26848H1.26846H1.26844H1.26842H1.2684H1.26839H1.26837H1.26835H1.26833H1.26831H1.2683H1.26828H1.26826H1.26825H1.26823H1.26821H1.2682H1.26818H1.26817H1.26815H1.26813H1.26812H1.2681H1.26809H1.26807H1.26806H1.26805H1.26803H1.26802H1.268H1.26799H1.26798H1.26796H1.26795H1.26794H1.26792H1.26791H1.2679H1.26788H1.26787H1.26786H1.26785H1.26784H1.26782H1.26781H1.2678H1.26779H1.26778H1.26777H1.26776H1.26775H1.26774H1.26773H1.26772H1.2677H1.2677H1.26769H1.26768H1.26767H1.26766H1.26765H1.26764H1.26763H1.26762H1.26761H1.2676H1.26759H1.26759H1.26758H1.26757H1.26756H1.26755H1.26755H1.26754H1.26753H1.26752H1.26752H1.26751H1.2675H1.2675H1.26749H1.26748H1.26748H1.26747H1.26746H1.26746H1.26745H1.26744H1.26744H1.26743H1.26743H1.26742H1.26742H1.26741H1.26741H1.2674H1.2674H1.26739H1.26739H1.26738H1.26738H1.26737H1.26737H1.26736H1.26736H1.26735H1.26735H1.26735H1.26734H1.26734H1.26734H1.26733H1.26733H1.26732H1.26732H1.26732H1.26731H1.26731H1.26731H1.26731H1.2673H1.2673H1.2673H1.26729H1.26729H1.26729H1.26729H1.26728H1.26728H1.26728H1.26728H1.26728H1.26727H1.26727H1.26727H1.26727H1.26727H1.26726H1.26726H1.26726H1.26725H1.26725H1.26725H1.26725H1.26724H1.26724H1.26724H1.26724H1.26724H1.26723L1.26723 15.4681L1.26723 15.5181ZM5.71881 15.859C5.12416 16.1547 4.57649 16.6791 4.22889 17.4676C3.86172 16.6395 3.29656 16.1537 2.73916 15.8617C3.33314 15.5663 3.88025 15.0428 4.22793 14.2558C4.57831 15.0828 5.1609 15.5677 5.71881 15.859Z" fill="#00442A" stroke="#00442A" stroke-width="0.1"/>
</svg>
