<svg width="325" height="354" viewBox="0 0 325 354" fill="none" xmlns="http://www.w3.org/2000/svg">
<path d="M99.3064 220.306C104.777 224.805 110.386 229.165 116.274 233.108C118.592 234.685 119.797 236.215 118.406 239.091C112.333 251.428 105.982 263.534 97.2666 274.387C95.5513 273.367 96.3858 271.976 96.4785 270.909C97.9156 254.536 94.1142 239.23 86.975 224.574C78.9549 208.108 67.5044 193.962 56.1929 179.723C56.0538 179.537 55.8684 179.398 55.7293 179.259C54.1995 177.682 52.7623 175.548 50.259 176.105C47.2457 176.754 47.4311 179.723 47.0139 182.042C44.6959 194.286 46.3648 206.346 48.5901 218.358C50.0735 226.429 52.3451 234.314 55.4511 241.967C60.8751 255.325 69.8223 265.76 81.8755 273.552C84.4716 275.222 86.975 277.031 89.3393 279.072C91.0546 280.556 91.1009 281.994 89.6638 283.617C88.5048 284.916 87.2531 286.215 86.0478 287.513C75.3853 298.413 62.7294 306.53 49.2854 313.441C48.3119 313.951 47.3847 314.554 45.7622 313.765C46.0403 311.585 46.3185 309.266 46.643 306.901C50.2126 281.02 49.2391 255.603 38.762 231.16C35.7024 224.017 32.3646 217.06 27.8214 210.705C21.7948 202.218 15.9536 193.591 11.3641 184.175C10.8542 183.201 10.3442 182.181 9.64883 181.299C7.88721 178.98 6.03286 179.027 4.50303 181.578C3.62222 183.062 3.15863 184.824 2.7414 186.541C0.191679 196.513 -0.0401142 206.717 0.516189 216.921C1.48972 234.221 4.27124 251.336 8.58259 268.079C13.2184 285.936 23.7882 300.407 36.305 313.533C37.464 314.786 39.2256 315.528 39.7819 317.847C38.0667 318.728 36.3977 319.563 34.6361 320.352C34.1262 320.583 32.7354 320.908 32.5036 321.418C32.2718 321.882 32.8281 322.717 33.2917 322.856C34.2189 323.181 34.8679 322.624 35.656 322.3C36.7223 321.836 37.7885 321.326 38.8548 320.862C40.7091 320.027 41.9608 320.352 43.4906 321.882C56.2392 334.776 71.6303 342.754 88.9684 348.041C119.797 357.41 149.374 353.051 178.626 341.687C179.878 341.223 181.083 340.667 182.242 340.064C188.5 336.817 188.732 333.709 182.937 329.396C174.036 322.763 163.652 319.563 153.175 316.687C131.294 310.704 109.042 309.962 86.6041 312.791C79.1404 313.765 71.723 315.018 64.2593 316.131C59.8552 316.78 55.4975 317.058 51.0934 316.595C50.5371 314.368 52.3451 314.322 53.2723 313.812C66.2527 306.901 78.3059 298.691 88.5512 288.024C91.1009 285.38 93.0016 285.102 95.7368 287.606C99.1209 290.714 103.664 291.456 107.836 292.847C122.393 297.625 137.228 301.15 152.526 302.68C155.586 303.005 158.738 303.329 161.798 303.005C178.811 301.289 195.64 298.645 211.865 293.079C221.369 289.832 230.038 284.916 237.826 278.515C239.031 277.541 240.237 276.567 241.303 275.454C245.475 271.187 244.872 268.822 239.124 267.245C236.991 266.642 234.766 266.503 232.587 266.224C209.037 263.441 185.302 263.07 161.612 262.328C149.837 261.957 138.201 263.58 126.565 265.343C117.989 266.642 109.922 269.471 101.253 274.712C101.81 274.341 102.042 273.553 102.273 272.95C103.293 270.352 105.055 268.079 106.353 265.621C108.856 260.983 111.684 256.53 114.373 251.985C116.32 248.692 118.128 245.399 119.704 241.92C120.863 239.369 122.3 238.674 124.85 240.251C127.307 241.735 129.949 242.941 132.545 244.193C140.056 247.764 147.89 249.898 156.235 250.083C183.586 250.547 208.898 244.471 231.104 227.542C244.687 217.199 257.065 205.418 270.045 194.379C270.37 194.101 270.741 193.823 271.019 193.498C271.946 192.524 272.827 191.503 272.409 190.019C271.946 188.442 270.555 188.21 269.211 188.21C265.456 188.21 261.654 187.978 257.946 188.442C242.972 190.251 228.137 192.988 213.858 197.997C202.176 202.125 190.447 206.206 178.44 209.407C162.076 213.767 146.685 220.492 131.896 228.655C129.857 229.768 128.049 231.624 125.499 231.484C124.618 230.139 125.406 229.165 125.823 228.238C130.042 218.498 134.446 208.804 138.433 198.924C139.731 195.817 141.168 195.26 144.413 195.817C164.765 199.388 184.931 199.017 204.819 192.617C215.388 189.231 225.68 185.242 235.786 180.697C252.012 173.368 264.389 161.634 275.191 147.858C280.012 141.69 284.324 135.196 288.635 128.656C290.767 125.363 292.9 122.07 295.125 118.823C296.238 117.2 297.304 115.577 298.463 113.953C299.205 112.887 302.913 108.388 299.854 107.924C298.509 107.738 297.258 108.527 296.099 109.13C294.662 109.918 293.224 110.707 291.741 111.495C288.496 113.258 285.204 114.927 281.913 116.551C275.33 119.798 268.608 122.812 261.84 125.688C255.071 128.564 248.21 131.254 241.303 133.805C234.395 136.402 227.442 138.86 220.488 141.319C220.441 141.319 220.441 141.319 220.395 141.365C210.567 144.797 200.832 148.461 191.235 152.543C173.944 159.825 166.665 164.88 146.592 182.042C145.665 180.186 146.731 178.609 147.427 177.172C151.692 168.637 156.003 160.149 160.314 151.662C162.54 147.302 165.646 144.519 170.791 143.545C190.077 139.834 208.11 132.321 226.051 124.76C236.852 120.215 247.747 115.809 258.409 110.799C279.456 100.92 298.88 88.7682 312.927 69.5199C314.364 67.5254 315.847 65.5774 316.728 63.3047C318.768 58.2491 317.145 55.9764 311.861 56.7649C307.92 57.3679 304.026 58.2955 300.225 59.4087C292.993 61.5422 285.992 64.3715 279.131 67.4791C245.939 82.5995 214.647 100.874 185.672 123.137C183.586 124.76 181.5 126.43 179.414 128.1C177.513 129.584 176.03 131.578 173.109 132.784C174.036 129.63 176.262 127.775 177.791 125.688C184.792 116.226 192.348 107.274 201.388 99.6679C203.242 98.0909 205.05 96.6067 207.6 96.0037C236.203 89.5103 260.588 75.1784 282.006 55.5126C289.516 48.6018 296.84 41.5518 304.211 34.5018C310.609 28.333 317.053 22.257 323.914 16.6912C324.98 15.8563 324.841 14.1866 323.867 13.259C322.245 11.8211 320.02 12.7488 318.258 13.3054C316.126 14.0011 313.993 14.6968 311.861 15.3925C307.642 16.8304 303.423 18.361 299.297 20.0307C291.046 23.2774 282.979 26.9879 275.145 31.1159C267.31 35.2439 259.707 39.7892 252.382 44.7985C244.965 49.8541 237.872 55.3735 231.15 61.3103C230.687 61.6814 230.269 62.0988 229.806 62.4699C221.137 70.2156 213.905 79.0745 207.878 89.0001C205.885 92.2468 203.567 95.1225 200.6 97.5343C191.792 104.677 184.606 113.397 176.725 121.653C180.388 115.901 184.282 110.243 187.712 104.306C202.825 78.5179 221.739 55.0952 234.952 28.1011C238.753 20.309 242.462 12.5169 245.568 4.44647C246.031 3.28693 247.051 1.98825 245.8 0.782328C244.594 -0.377212 243.25 0.364894 242.137 1.01424C239.634 2.40568 237.084 3.79713 234.766 5.51325C214.415 20.7264 196.01 37.7948 182.056 59.3623C175.474 69.5199 171.394 80.7442 166.99 91.8294C166.341 93.4528 165.738 95.1225 164.162 96.7458C162.679 82.4603 161.288 68.1748 159.758 53.8893C158.228 39.6965 156.559 25.5037 157.162 10.9399C153.314 11.4965 152.572 13.7692 151.784 15.7172C142.234 38.908 135.837 62.5626 137.969 88.0725C139.407 105.141 141.771 121.977 145.433 138.675C146.824 144.936 147.473 151.383 148.678 157.691C149.93 164.046 149.513 169.982 145.897 175.548C144.691 177.403 143.857 179.444 142.883 181.392C140.936 180.65 141.585 179.166 141.585 177.96C141.539 155.419 136.95 133.944 126.473 113.861C121.419 104.213 117.062 94.2876 115.161 83.4343C114.929 82.182 114.837 80.6978 113.121 80.2804C110.942 81.1152 110.757 83.2952 110.293 85.1041C102.969 115.53 106.816 144.055 124.943 170.075C128.234 174.806 131.572 179.491 134.91 184.222C137.923 188.489 138.711 192.849 136.393 197.904C132.638 206.16 129.439 214.648 125.963 223.089C125.406 222.765 124.804 222.579 124.804 222.347C124.155 199.156 115.949 178.238 105.889 157.784C103.061 152.033 100.419 146.142 97.7765 140.298C94.346 132.784 91.9354 124.992 90.73 116.829C90.4982 115.345 90.6837 113.675 89.2929 112.562C87.624 112.608 87.0213 113.861 86.5114 115.067C81.5974 126.94 76.7297 138.814 74.3191 151.569C69.1269 179.583 77.3324 202.357 99.3064 220.306ZM42.7489 307.968C40.3846 297.161 36.3514 286.91 32.8281 276.428C30.6493 269.888 28.6095 263.349 27.4969 256.53C25.2717 242.477 21.0067 228.933 17.2053 215.297C16.9271 214.23 17.1126 212.422 14.3311 212.793C19.1523 229.444 23.3246 246.095 26.8015 262.978C30.3248 280.046 38.5302 295.862 41.8217 313.673C39.0402 313.441 37.7421 312.188 36.5832 310.89C24.7154 297.532 14.2847 283.339 10.0661 265.529C7.19183 253.469 5.15205 241.225 3.62222 228.887C2.13874 216.781 1.76787 204.583 3.57586 192.477C4.0858 189.138 4.36395 185.567 6.96003 183.062C8.86074 183.619 9.32432 184.964 9.88063 186.123C14.5628 195.446 20.4504 204.026 26.4306 212.561C30.4175 218.219 33.3844 224.342 36.166 230.65C46.7357 254.768 48.0801 279.907 44.5105 305.602C44.5105 306.437 44.6032 307.365 42.7489 307.968ZM78.0741 316.038C98.3328 312.838 118.592 312.142 138.85 315.667C153.129 318.125 166.851 322.114 179.46 329.535C181.732 330.88 184.699 332.086 184.513 335.101C184.328 337.884 181.129 338.301 178.997 339.182C149.466 351.149 119.519 355.323 88.273 345.676C74.0409 341.27 61.4778 334.312 49.8417 325.361C49.0073 324.711 47.3847 324.155 48.3583 321.789C69.7759 330.648 92.4453 333.478 115.207 336.029C93.4188 330.927 70.8885 329.025 50.259 319.47C59.8088 319.47 68.9415 317.476 78.0741 316.038ZM93.697 270.445C91.1936 266.131 89.2929 261.632 87.1604 257.319C84.8888 252.774 82.4782 248.275 80.0212 243.822C77.7033 239.555 75.1535 235.38 72.9283 231.067C70.6104 226.568 68.5243 221.883 66.299 217.338C64.2593 213.21 63.6566 208.34 59.8552 205C59.9479 207.273 60.9215 209.268 61.6168 211.308C66.16 224.11 72.9747 235.751 79.6503 247.532C83.9153 255.046 87.7631 262.792 90.6837 270.909C91.3791 272.903 92.3989 274.898 92.0744 277.588C88.1339 275.964 85.5842 273.135 82.4782 271.233C69.2196 263.117 60.7824 251.289 55.7293 236.865C51.2789 224.249 48.7755 211.216 48.1265 197.904C47.802 191.503 47.8947 185.103 50.3053 178.517C53.3186 179.259 54.6167 181.114 55.9611 182.83C62.4049 191.272 69.0342 199.574 75.0608 208.294C82.5246 219.101 88.3194 230.789 91.889 243.497C94.346 252.31 95.0877 261.308 93.697 270.445ZM120.585 268.729C131.201 266.456 141.956 264.694 152.804 264.647C179.831 264.462 206.812 265.575 233.654 268.543C235.647 268.775 237.594 269.053 239.541 269.564C241.442 270.074 242.045 271.465 240.607 273.042C239.448 274.341 238.058 275.501 236.713 276.66C229.528 282.69 221.461 287.374 212.653 290.528C196.103 296.511 178.811 299.155 161.381 300.918C158.135 301.242 154.751 300.825 151.46 300.454C135.976 298.83 121.002 294.888 106.214 290.203C104.73 289.74 103.386 288.812 101.995 288.07C135.976 291.595 169.725 295.445 202.593 282.922C199.116 282.272 195.964 283.849 192.719 284.684C161.473 292.662 130.274 289.09 99.0746 284.406C97.7765 284.22 96.2931 284.081 95.9222 282.504C95.4586 280.603 96.9884 279.721 98.2865 278.933C105.379 274.619 112.426 270.445 120.585 268.729ZM128.234 233.293C129.718 232.366 131.247 231.438 132.777 230.557C147.705 222.115 163.374 215.483 179.924 211.076C189.335 208.572 198.699 205.696 207.786 202.264C221.971 196.884 236.621 193.637 251.502 191.225C257.389 190.251 263.23 189.695 269.164 190.39C269.303 190.854 269.489 191.318 269.628 191.782C262.999 197.626 256.323 203.377 249.786 209.314C240.886 217.338 231.614 224.852 221.554 231.392C199.951 245.399 176.03 248.97 150.95 247.532C148.307 247.393 145.711 246.744 143.115 246.048C137.645 244.61 132.592 241.735 129.764 238.674C142.466 239.648 154.751 238.117 166.712 234.546C184.143 229.351 200.878 222.254 217.984 216.086C218.958 215.715 220.766 215.668 220.117 213.488C217.984 214.184 215.898 214.787 213.812 215.483C198.56 220.817 183.633 227.171 168.195 231.902C157.116 235.334 145.804 237.282 134.168 236.725C131.804 236.586 128.93 237.143 127.168 234.638C127.724 233.989 127.91 233.525 128.234 233.293ZM212.746 87.0985C216.408 78.9817 222.157 72.6274 228.461 66.737C254.33 42.5258 284.648 26.1531 318.304 15.6708C319.046 15.4389 320.02 14.9287 320.437 16.4129C314.828 21.654 309.218 26.8952 303.609 32.1363C294.383 40.7633 285.343 49.5294 275.979 57.9708C259.475 72.8593 240.329 83.2952 219.514 90.7626C217.15 91.5975 214.786 92.8498 211.216 92.1541C225.309 80.3268 241.025 72.3955 255.21 62.1452C240.329 69.1952 226.653 78.2396 212.746 87.0985ZM174.176 135.474C177.884 132.321 181.5 129.027 185.348 126.013C214.786 103.332 246.541 84.5475 280.383 69.2416C287.059 66.2268 293.827 63.4902 300.874 61.4031C304.072 60.4754 307.317 59.7797 310.563 59.084C312 58.8057 313.854 57.9708 314.828 59.687C315.662 61.1712 314.642 62.7018 313.854 64.0004C312.324 66.4587 310.748 68.8705 308.986 71.0968C300.874 81.5327 290.767 89.6495 279.688 96.8386C262.257 108.156 242.74 115.02 223.918 123.23C212.375 128.285 200.693 133.202 188.547 136.773C185.719 137.608 182.891 138.814 179.739 138.118C194.527 130.558 210.011 124.668 224.475 116.597C238.846 108.573 251.594 98.1373 264.853 88.4436C249.323 96.4212 236.203 108.202 220.72 116.226C205.189 124.297 188.918 130.604 173.202 138.211C172.924 137.84 172.692 137.469 172.414 137.144C172.97 136.634 173.573 135.985 174.176 135.474ZM162.261 131.3C163.467 116.968 165.228 102.961 170.235 89.1393C183.355 52.8689 208.62 27.0807 239.031 5.32772C240.144 4.53924 241.303 3.00864 243.203 4.21457C236.528 21.886 228.137 38.6761 217.614 54.3067C206.395 71.0968 195.408 87.9333 184.792 105.095C179.136 114.232 173.295 123.323 167.546 132.413C166.573 131.671 166.758 130.744 166.897 129.909C169.03 117.2 172.182 104.816 177.699 93.0817C183.633 80.3268 191.838 69.1024 200.646 58.2491C202.547 55.93 204.633 53.7037 205.375 49.7149C182.056 74.8537 166.897 102.868 163.42 136.727C161.89 134.825 162.122 133.016 162.261 131.3ZM147.241 137.144C143.95 121.746 141.632 106.254 140.287 90.5307C138.572 70.7258 141.215 51.6166 147.658 32.9712C149.466 27.73 150.533 22.1179 154.751 16.6448C155.4 39.2327 158.367 60.4754 160.685 81.811C162.771 101.198 161.01 120.308 158.089 139.371C157.811 141.272 157.857 143.452 155.818 146.049C156.513 131.254 156.559 117.525 154.798 103.889C153.036 90.3916 149.837 77.1728 146.546 64.0004C147.937 79.5383 152.155 94.6587 153.407 110.197C154.705 126.059 154.612 141.875 151.645 157.645C149.837 150.827 148.678 143.962 147.241 137.144ZM144.877 188.21C152.619 178.331 161.983 170.4 172.877 164.092C188.315 155.14 204.819 148.832 221.6 143.081C246.773 134.5 271.482 124.807 294.986 112.191C295.542 111.913 296.145 111.634 296.655 112.655C289.516 122.905 283.118 133.712 275.562 143.823C263.833 159.547 250.018 172.533 231.66 180.233C220.812 184.778 209.872 188.86 198.56 192.153C183.169 196.652 167.5 196.002 151.784 194.982C151.135 194.936 150.44 194.797 150.023 193.498C167.639 188.581 185.302 183.85 202.13 176.569C219.422 169.055 245.892 152.868 249.23 146.792C232.17 157.738 216.64 168.776 198.792 175.687C181.083 182.552 163.189 188.674 144.089 191.967C143.718 189.555 144.367 188.906 144.877 188.21ZM115.254 117.015C117.525 130.836 121.095 144.287 127.492 156.856C131.016 163.767 134.122 170.864 136.671 178.192C137.181 179.723 138.155 181.299 137.181 183.526C126.426 169.24 116.227 155.372 112.194 138.025C108.207 120.911 107.28 103.889 113.214 86.8202C115.671 98.8794 121.837 109.176 127.029 119.89C134.585 135.521 138.062 152.079 139.267 169.24C139.407 171.327 139.824 173.507 138.804 176.569C133.936 165.808 129.532 155.975 125.082 146.142C120.492 135.985 119.333 124.899 116.413 113.443C114.929 115.298 115.115 116.18 115.254 117.015ZM75.2463 160.613C76.2198 149.946 78.9086 139.649 83.1272 129.816C84.7034 126.152 85.2597 121.977 88.6439 117.478C91.24 133.109 97.5447 145.818 103.85 158.48C108.624 168.034 112.658 177.867 116.274 187.839C119.704 197.255 121.512 207.088 122.3 217.06C122.486 219.796 122.903 222.626 121.837 225.316C120.4 225.037 119.982 224.249 119.611 223.46C115.995 216.086 111.591 209.175 107.512 202.032C98.6574 186.541 90.8227 170.678 90.081 152.357C90.0347 151.476 90.2664 149.992 87.9022 150.131C88.783 160.752 89.9883 171.188 94.5314 181.021C98.7964 190.298 103.386 199.388 108.624 208.154C111.916 213.674 114.976 219.332 117.989 224.991C119.101 227.032 120.26 229.212 120.029 231.484C118.684 232.273 117.943 231.763 117.201 231.299C110.942 227.125 105.008 222.486 99.26 217.616C81.6901 202.635 73.1138 183.85 75.2463 160.613Z" fill="#00442A"/>
</svg>
