<svg width="154" height="135" viewBox="0 0 154 135" fill="none" xmlns="http://www.w3.org/2000/svg">
<g clip-path="url(#clip0)">
<path fill-rule="evenodd" clip-rule="evenodd" d="M160.385 7.08441C158.697 18.9997 156.27 30.7627 152.987 42.3495C151.179 48.7358 149.663 55.1922 147.314 61.4385C143.415 71.7934 138.375 81.5372 132.122 90.6385C127.253 97.7229 122.115 104.626 117.092 111.604C116.699 112.15 116.398 112.812 115.632 112.976C114.929 112.474 115.154 111.778 115.215 111.107C116.944 91.8099 121.679 73.2113 128.509 55.1319C133.862 40.9606 140.36 27.3184 148.274 14.3596C151.057 9.79693 153.111 4.8574 155.315 0H151.356C151.358 0.52173 150.987 0.81158 150.745 1.13283C138.864 16.8693 125.275 30.9536 109.835 43.2698C108.322 44.475 107.221 44.5258 105.582 43.5403C99.6057 39.9413 93.0787 38.4099 86.0984 38.9582C83.0046 39.2022 79.9206 39.5524 76.8293 39.8326C66.874 40.7384 56.9454 42.0065 46.9513 42.4123C39.4836 42.7166 32.0159 42.9775 24.5992 43.9147C18.3268 44.7069 12.0375 45.5282 6.14093 48.0185C3.97094 48.9339 1.73064 49.7672 -0.00292969 51.5909C0.583816 52.5208 1.37908 52.7092 2.10402 53.016C10.9101 56.726 19.9731 59.6849 29.1913 62.1728C36.6614 64.1873 44.2406 65.4843 52.0089 65.2766C57.3454 65.1341 62.3691 63.5423 67.4947 62.1825C76.5868 59.767 85.9165 58.2067 94.4535 53.8807C94.1431 54.4338 93.7746 54.8468 93.3236 55.1294C88.3581 58.2357 83.3174 61.2018 78.0706 63.8298C75.1005 65.3177 71.985 65.8877 68.7554 66.0109C66.0011 66.1148 63.2395 66.035 60.4804 66.0157C53.5728 65.9698 46.7452 66.3491 39.9249 67.7911C30.3794 69.8103 22.0461 74.2692 13.9868 79.4285C10.2772 81.8029 7.2732 84.9816 4.3516 88.2255C3.89578 88.7327 3.32116 89.3269 3.60241 90.037C3.92002 90.8365 4.7468 90.6143 5.42083 90.5443C8.41275 90.2327 11.3877 90.4211 14.3651 90.7592C19.3403 91.322 24.2452 90.8196 29.058 89.5298C32.85 88.5129 36.722 88.0153 40.5892 87.4646C45.6008 86.7521 50.593 85.9598 55.4688 84.5613C57.1272 84.0854 58.7662 83.5661 60.2888 82.7207C68.7506 78.0348 75.794 71.733 81.6784 64.1148C82.2482 63.3781 82.7864 62.6873 83.6181 62.2235C89.0103 59.2043 94.2207 55.8903 99.3802 52.4894C99.5426 52.6778 99.7051 52.8662 99.8675 53.0546C97.2126 55.8831 94.6256 58.7767 91.8907 61.5255C87.7374 65.7041 84.2945 70.3586 81.2444 75.4069C75.8182 84.3874 71.6989 93.9524 67.7226 103.602C63.6105 113.58 64.0106 123.481 68.3772 133.287C68.7118 134.039 69.0464 134.901 69.9095 134.995C70.8503 135.097 71.2236 134.159 71.5752 133.478C75.246 126.365 80.5728 120.488 85.7711 114.515C92.5284 106.744 97.038 97.8123 99.579 87.8801C101.254 81.3295 103.061 74.803 104.428 68.1872C105.747 61.8081 107.585 55.4821 107.726 48.9146C107.769 46.8373 108.586 45.5499 110.14 44.3301C124.935 32.7071 138.008 19.3861 149.525 4.53857C149.957 3.98061 150.177 3.03376 151.281 3.13038C150.88 4.669 149.974 5.86946 149.152 7.09649C144.227 14.4297 139.16 21.6711 134.362 29.084C129.876 36.0138 125.367 42.9896 122.411 50.731C118.605 60.7018 116.146 71.0953 113.399 81.3923C112.807 83.6072 112.57 85.8922 112.354 88.1772C111.692 95.1722 112.851 102.124 112.798 109.107C112.783 110.884 113.532 112.684 114.032 114.445C114.364 115.619 115.096 115.911 116.005 114.918C116.469 114.413 116.861 113.841 117.264 113.283C121.887 106.858 126.518 100.435 131.13 94.0007C140.164 81.3923 147.122 67.7283 151.324 52.8131C155.237 38.922 158.952 24.9657 160.991 10.6302C161.495 7.09408 162.038 3.53858 161.995 0.00483083H160.821C160.841 2.36469 160.717 4.72697 160.385 7.08441ZM78.7277 66.2693C72.739 72.4601 66.6145 78.4696 58.6814 82.2666C53.8128 84.5951 48.5006 85.0709 43.3265 85.9429C37.1003 86.9936 30.8255 87.7496 24.6937 89.3172C22.8923 89.7786 21.0545 89.8438 19.2215 89.8728C14.6609 89.9452 10.1633 88.9066 4.98441 89.4863C7.75084 85.8366 10.4833 83.1048 13.7226 80.9865C21.6097 75.8271 29.6544 70.9915 39.1102 69.064C43.7387 68.122 48.3575 67.2717 53.083 67.2065C58.5819 67.1268 64.0833 67.1655 69.6598 67.4215C61.5666 71.6823 53.0079 74.7475 44.2503 77.1894C35.4661 79.6363 26.4006 80.9551 17.5679 83.199C39.0157 80.9044 59.3045 74.6363 79.0841 64.6703C78.8295 65.8539 78.8562 66.1365 78.7277 66.2693ZM95.4354 52.0281C89.3158 54.6053 83.4241 57.7115 76.7056 58.7816C72.4141 59.4651 68.1832 60.7308 64.0324 62.0593C57.6679 64.0955 51.1919 64.6124 44.614 63.9119C31.2425 62.4892 18.6493 58.2405 6.25488 53.057C9.7099 52.7913 13.0897 53.371 16.3532 54.3589C32.6924 59.3033 49.3759 59.7888 66.2145 58.3299C69.5313 58.0424 72.8239 57.4507 76.0437 56.5618C82.7961 54.7019 89.5437 52.8203 96.3761 50.9266C96.4998 51.8107 95.8112 51.8686 95.4354 52.0281ZM31.485 56.6753C28.1851 56.2019 24.9338 55.4821 21.7212 54.6029C16.2878 53.1174 10.8276 51.801 5.18807 51.3686C4.64255 51.3276 4.02913 51.3952 3.44723 50.5691C7.71205 48.045 12.2969 46.9364 16.9278 46.1296C26.6673 44.4316 36.5208 43.9074 46.3912 43.5185C57.6315 43.0741 68.7991 41.707 79.9836 40.5717C86.1639 39.9461 92.3417 39.3399 98.3934 41.4727C100.871 42.3471 103.33 43.2432 105.49 44.8398C105.148 46.1731 104.118 46.446 103.206 46.8373C80.2115 56.714 56.3368 60.2284 31.485 56.6753ZM68.5978 127.266C68.5881 127.831 68.5178 128.394 68.4402 129.423C66.583 126.57 66.5442 123.657 66.2024 120.911C65.4653 114.996 66.5539 109.3 68.8161 103.788C72.9475 93.7085 77.336 83.7618 83.104 74.4697C84.9225 71.5398 86.7603 68.6413 89.1049 66.1027C93.0472 61.8371 97.2441 57.8154 101.206 53.5015C101.378 55.1343 100.551 56.3613 99.819 57.5594C96.2379 63.4288 92.5768 69.25 88.9764 75.1074C84.6509 82.1435 80.711 89.3969 76.8923 96.7084C71.9001 106.266 68.7845 116.387 68.5978 127.266ZM106.268 53.342C104.098 65.8708 101.111 78.216 97.6806 90.4525C95.3311 98.8316 91.2554 106.348 85.6038 113.003C80.4152 119.111 74.8654 124.949 71.0709 132.114C70.9836 132.28 70.7072 132.345 70.2853 132.601C69.6962 130.833 69.6986 129.087 69.7228 127.326C69.878 115.95 73.3864 105.513 78.701 95.5901C84.4351 84.8825 90.4141 74.3175 97.152 64.1921C100.018 59.8854 102.445 55.3468 104.312 50.5184C104.678 49.5692 105.032 48.5982 106.324 47.5885C106.906 49.7672 106.576 51.5691 106.268 53.342ZM114.813 106.022C114.742 106.546 114.672 107.068 114.602 107.592C114.565 107.872 114.524 108.153 114.49 108.433C114.48 108.505 114.49 108.616 114.473 108.713C114.456 108.817 114.408 108.904 114.274 108.899C114.102 108.894 114.032 108.631 113.988 108.498C113.802 107.938 113.823 107.411 113.797 106.827C113.768 106.228 113.738 105.631 113.709 105.032C113.651 103.836 113.595 102.641 113.545 101.445C113.445 99.061 113.372 96.6722 113.377 94.2858C113.382 91.909 113.462 89.5298 113.668 87.1603C113.874 84.7859 114.204 82.4188 114.703 80.0855C115.176 77.873 115.797 75.6919 116.585 73.5687C118.374 68.7451 119.412 63.6607 120.792 58.697C123.568 48.7117 128.785 39.9582 134.202 31.3159C138.522 24.4223 143.245 17.7799 147.799 11.0288C148.296 10.2921 148.844 9.59162 149.869 9.15684C148.97 10.8042 148.131 12.4853 147.161 14.0891C133.026 37.4534 123.296 62.5617 117.266 89.124C116.226 93.7036 115.678 98.375 115.181 103.046C115.072 104.042 114.943 105.032 114.813 106.022Z" fill="white"/>
</g>
<defs>
<clipPath id="clip0">
<rect width="162" height="135" fill="white"/>
</clipPath>
</defs>
</svg>
