<svg width="26" height="26" viewBox="0 0 26 26" fill="none" xmlns="http://www.w3.org/2000/svg">
<g clip-path="url(#clip0)">
<path d="M25.9042 12.6923C25.6994 12.3944 20.7789 5.41649 13.0004 5.41649C6.32589 5.41649 0.378294 12.3543 0.12804 12.65C-0.042029 12.8515 -0.042029 13.1473 0.12804 13.3499C0.378294 13.6456 6.32589 20.5834 13.0004 20.5834C19.675 20.5834 25.6225 13.6456 25.8728 13.3499C26.0299 13.1635 26.0439 12.8938 25.9042 12.6923ZM13.0004 19.5001C7.64978 19.5001 2.56233 14.3975 1.26993 13C2.5602 11.6014 7.64221 6.49988 13.0004 6.49988C19.2611 6.49988 23.6801 11.5949 24.7591 12.9707C23.5132 14.3238 18.3966 19.5001 13.0004 19.5001Z" fill="black"/>
<path d="M12.9999 8.66652C10.61 8.66652 8.6665 10.6101 8.6665 12.9999C8.6665 15.3898 10.61 17.3333 12.9999 17.3333C15.3898 17.3333 17.3333 15.3898 17.3333 12.9999C17.3333 10.6101 15.3898 8.66652 12.9999 8.66652ZM12.9999 16.25C11.2081 16.25 9.74984 14.7918 9.74984 13C9.74984 11.2081 11.2081 9.7499 12.9999 9.7499C14.7918 9.7499 16.25 11.2081 16.25 13C16.25 14.7918 14.7918 16.25 12.9999 16.25Z" fill="black"/>
</g>
<defs>
<clipPath id="clip0">
<rect width="26" height="26" fill="white"/>
</clipPath>
</defs>
</svg>
